G04*
G04 #@! TF.GenerationSoftware,Altium Limited,Altium Designer Develop,26.4.1 (13)*
G04*
G04 Layer_Physical_Order=2*
G04 Layer_Color=16711680*
%FSLAX25Y25*%
%MOIN*%
G70*
G04*
G04 #@! TF.SameCoordinates,29AABDA0-5697-452D-8F28-FD8EF657E8B7*
G04*
G04*
G04 #@! TF.FilePolarity,Positive*
G04*
G01*
G75*
%ADD17C,0.06000*%
G36*
X510000Y458500D02*
Y150000D01*
X140500D01*
X140000Y150500D01*
X142500Y459000D01*
X509500D01*
X510000Y458500D01*
D02*
G37*
%LPC*%
G36*
X419461Y444500D02*
X419250D01*
Y441250D01*
X422500D01*
Y441461D01*
X422261Y442351D01*
X421801Y443149D01*
X421149Y443801D01*
X420351Y444262D01*
X419461Y444500D01*
D02*
G37*
G36*
X418750D02*
X418539D01*
X417649Y444262D01*
X416851Y443801D01*
X416199Y443149D01*
X415738Y442351D01*
X415500Y441461D01*
Y441250D01*
X418750D01*
Y444500D01*
D02*
G37*
G36*
X459461D02*
X458539D01*
X457649Y444262D01*
X456851Y443801D01*
X456199Y443149D01*
X455738Y442351D01*
X455500Y441461D01*
Y440539D01*
X455738Y439649D01*
X456199Y438851D01*
X456851Y438199D01*
X457649Y437739D01*
X458539Y437500D01*
X459461D01*
X460351Y437739D01*
X461149Y438199D01*
X461801Y438851D01*
X462261Y439649D01*
X462500Y440539D01*
Y441461D01*
X462261Y442351D01*
X461801Y443149D01*
X461149Y443801D01*
X460351Y444262D01*
X459461Y444500D01*
D02*
G37*
G36*
X449461D02*
X448539D01*
X447649Y444262D01*
X446851Y443801D01*
X446199Y443149D01*
X445739Y442351D01*
X445500Y441461D01*
Y440539D01*
X445739Y439649D01*
X446199Y438851D01*
X446851Y438199D01*
X447649Y437739D01*
X448539Y437500D01*
X449461D01*
X450351Y437739D01*
X451149Y438199D01*
X451801Y438851D01*
X452261Y439649D01*
X452500Y440539D01*
Y441461D01*
X452261Y442351D01*
X451801Y443149D01*
X451149Y443801D01*
X450351Y444262D01*
X449461Y444500D01*
D02*
G37*
G36*
X439461D02*
X438539D01*
X437649Y444262D01*
X436851Y443801D01*
X436199Y443149D01*
X435739Y442351D01*
X435500Y441461D01*
Y440539D01*
X435739Y439649D01*
X436199Y438851D01*
X436851Y438199D01*
X437649Y437739D01*
X438539Y437500D01*
X439461D01*
X440351Y437739D01*
X441149Y438199D01*
X441801Y438851D01*
X442262Y439649D01*
X442500Y440539D01*
Y441461D01*
X442262Y442351D01*
X441801Y443149D01*
X441149Y443801D01*
X440351Y444262D01*
X439461Y444500D01*
D02*
G37*
G36*
X429461D02*
X428539D01*
X427649Y444262D01*
X426851Y443801D01*
X426199Y443149D01*
X425738Y442351D01*
X425500Y441461D01*
Y440539D01*
X425738Y439649D01*
X426199Y438851D01*
X426851Y438199D01*
X427649Y437739D01*
X428539Y437500D01*
X429461D01*
X430351Y437739D01*
X431149Y438199D01*
X431801Y438851D01*
X432262Y439649D01*
X432500Y440539D01*
Y441461D01*
X432262Y442351D01*
X431801Y443149D01*
X431149Y443801D01*
X430351Y444262D01*
X429461Y444500D01*
D02*
G37*
G36*
X422500Y440750D02*
X419250D01*
Y437500D01*
X419461D01*
X420351Y437739D01*
X421149Y438199D01*
X421801Y438851D01*
X422261Y439649D01*
X422500Y440539D01*
Y440750D01*
D02*
G37*
G36*
X418750D02*
X415500D01*
Y440539D01*
X415738Y439649D01*
X416199Y438851D01*
X416851Y438199D01*
X417649Y437739D01*
X418539Y437500D01*
X418750D01*
Y440750D01*
D02*
G37*
G36*
X409461Y444500D02*
X408539D01*
X407649Y444262D01*
X406851Y443801D01*
X406199Y443149D01*
X405738Y442351D01*
X405500Y441461D01*
Y440539D01*
X405738Y439649D01*
X406199Y438851D01*
X406851Y438199D01*
X407649Y437739D01*
X408539Y437500D01*
X409461D01*
X410351Y437739D01*
X411149Y438199D01*
X411801Y438851D01*
X412261Y439649D01*
X412500Y440539D01*
Y441461D01*
X412261Y442351D01*
X411801Y443149D01*
X411149Y443801D01*
X410351Y444262D01*
X409461Y444500D01*
D02*
G37*
G36*
X165961Y442500D02*
X165039D01*
X164149Y442262D01*
X163351Y441801D01*
X162699Y441149D01*
X162239Y440351D01*
X162000Y439461D01*
Y438539D01*
X162239Y437649D01*
X162699Y436851D01*
X163351Y436199D01*
X164149Y435739D01*
X165039Y435500D01*
X165961D01*
X166851Y435739D01*
X167649Y436199D01*
X168301Y436851D01*
X168762Y437649D01*
X169000Y438539D01*
Y439461D01*
X168762Y440351D01*
X168301Y441149D01*
X167649Y441801D01*
X166851Y442262D01*
X165961Y442500D01*
D02*
G37*
G36*
Y432500D02*
X165039D01*
X164149Y432262D01*
X163351Y431801D01*
X162699Y431149D01*
X162239Y430351D01*
X162000Y429461D01*
Y428539D01*
X162239Y427649D01*
X162699Y426851D01*
X163351Y426199D01*
X164149Y425738D01*
X165039Y425500D01*
X165961D01*
X166851Y425738D01*
X167649Y426199D01*
X168301Y426851D01*
X168762Y427649D01*
X169000Y428539D01*
Y429461D01*
X168762Y430351D01*
X168301Y431149D01*
X167649Y431801D01*
X166851Y432262D01*
X165961Y432500D01*
D02*
G37*
G36*
Y422500D02*
X165039D01*
X164149Y422261D01*
X163351Y421801D01*
X162699Y421149D01*
X162239Y420351D01*
X162000Y419461D01*
Y418539D01*
X162239Y417649D01*
X162699Y416851D01*
X163351Y416199D01*
X164149Y415738D01*
X165039Y415500D01*
X165961D01*
X166851Y415738D01*
X167649Y416199D01*
X168301Y416851D01*
X168762Y417649D01*
X169000Y418539D01*
Y419461D01*
X168762Y420351D01*
X168301Y421149D01*
X167649Y421801D01*
X166851Y422261D01*
X165961Y422500D01*
D02*
G37*
G36*
X491461Y418500D02*
X491250D01*
Y415250D01*
X494500D01*
Y415461D01*
X494262Y416351D01*
X493801Y417149D01*
X493149Y417801D01*
X492351Y418261D01*
X491461Y418500D01*
D02*
G37*
G36*
X490750D02*
X490539D01*
X489649Y418261D01*
X488851Y417801D01*
X488199Y417149D01*
X487739Y416351D01*
X487500Y415461D01*
Y415250D01*
X490750D01*
Y418500D01*
D02*
G37*
G36*
X494500Y414750D02*
X491250D01*
Y411500D01*
X491461D01*
X492351Y411738D01*
X493149Y412199D01*
X493801Y412851D01*
X494262Y413649D01*
X494500Y414539D01*
Y414750D01*
D02*
G37*
G36*
X490750D02*
X487500D01*
Y414539D01*
X487739Y413649D01*
X488199Y412851D01*
X488851Y412199D01*
X489649Y411738D01*
X490539Y411500D01*
X490750D01*
Y414750D01*
D02*
G37*
G36*
X165961Y412500D02*
X165039D01*
X164149Y412261D01*
X163351Y411801D01*
X162699Y411149D01*
X162239Y410351D01*
X162000Y409461D01*
Y408539D01*
X162239Y407649D01*
X162699Y406851D01*
X163351Y406199D01*
X164149Y405738D01*
X165039Y405500D01*
X165961D01*
X166851Y405738D01*
X167649Y406199D01*
X168301Y406851D01*
X168762Y407649D01*
X169000Y408539D01*
Y409461D01*
X168762Y410351D01*
X168301Y411149D01*
X167649Y411801D01*
X166851Y412261D01*
X165961Y412500D01*
D02*
G37*
G36*
X392961Y411000D02*
X392039D01*
X391149Y410761D01*
X390351Y410301D01*
X389699Y409649D01*
X389239Y408851D01*
X389000Y407961D01*
Y407039D01*
X389239Y406149D01*
X389699Y405351D01*
X390351Y404699D01*
X391149Y404239D01*
X392039Y404000D01*
X392961D01*
X393851Y404239D01*
X394649Y404699D01*
X395301Y405351D01*
X395761Y406149D01*
X396000Y407039D01*
Y407961D01*
X395761Y408851D01*
X395301Y409649D01*
X394649Y410301D01*
X393851Y410761D01*
X392961Y411000D01*
D02*
G37*
G36*
X302961D02*
X302039D01*
X301149Y410761D01*
X300351Y410301D01*
X299699Y409649D01*
X299238Y408851D01*
X299000Y407961D01*
Y407039D01*
X299238Y406149D01*
X299699Y405351D01*
X300351Y404699D01*
X301149Y404239D01*
X302039Y404000D01*
X302961D01*
X303851Y404239D01*
X304649Y404699D01*
X305301Y405351D01*
X305762Y406149D01*
X306000Y407039D01*
Y407961D01*
X305762Y408851D01*
X305301Y409649D01*
X304649Y410301D01*
X303851Y410761D01*
X302961Y411000D01*
D02*
G37*
G36*
X404000Y435541D02*
X404000Y435541D01*
X271500D01*
X271117Y435383D01*
X271117Y435383D01*
X262117Y426383D01*
X261959Y426000D01*
X261959Y426000D01*
Y395000D01*
X262117Y394617D01*
X262500Y394459D01*
X291000D01*
X291000Y394459D01*
X291383Y394617D01*
X291383Y394617D01*
X291883Y395117D01*
X292041Y395500D01*
X292041Y395500D01*
Y412776D01*
X294724Y415459D01*
X306276D01*
X309959Y411776D01*
Y388000D01*
Y387500D01*
X310117Y387117D01*
X310500Y386959D01*
X384500D01*
X384883Y387117D01*
X385041Y387500D01*
Y415000D01*
X385392Y415459D01*
X400459D01*
Y405000D01*
X400459Y405000D01*
X400617Y404617D01*
X400617Y404617D01*
X401117Y404117D01*
X401421Y403992D01*
X401500Y403959D01*
X401883Y404117D01*
X401883Y404117D01*
X408383Y410617D01*
X408541Y411000D01*
X408541Y411000D01*
Y431000D01*
X408383Y431383D01*
X408383Y431383D01*
X404383Y435383D01*
X404000Y435541D01*
D02*
G37*
G36*
X491461Y408500D02*
X490539D01*
X489649Y408261D01*
X488851Y407801D01*
X488199Y407149D01*
X487739Y406351D01*
X487500Y405461D01*
Y404539D01*
X487739Y403649D01*
X488199Y402851D01*
X488851Y402199D01*
X489649Y401739D01*
X490539Y401500D01*
X491461D01*
X492351Y401739D01*
X493149Y402199D01*
X493801Y402851D01*
X494262Y403649D01*
X494500Y404539D01*
Y405461D01*
X494262Y406351D01*
X493801Y407149D01*
X493149Y407801D01*
X492351Y408261D01*
X491461Y408500D01*
D02*
G37*
G36*
X165961Y402500D02*
X165039D01*
X164149Y402261D01*
X163351Y401801D01*
X162699Y401149D01*
X162239Y400351D01*
X162000Y399461D01*
Y398539D01*
X162239Y397649D01*
X162699Y396851D01*
X163351Y396199D01*
X164149Y395739D01*
X165039Y395500D01*
X165961D01*
X166851Y395739D01*
X167649Y396199D01*
X168301Y396851D01*
X168762Y397649D01*
X169000Y398539D01*
Y399461D01*
X168762Y400351D01*
X168301Y401149D01*
X167649Y401801D01*
X166851Y402261D01*
X165961Y402500D01*
D02*
G37*
G36*
X392961Y401000D02*
X392039D01*
X391149Y400762D01*
X390351Y400301D01*
X389699Y399649D01*
X389239Y398851D01*
X389000Y397961D01*
Y397039D01*
X389239Y396149D01*
X389699Y395351D01*
X390351Y394699D01*
X391149Y394238D01*
X392039Y394000D01*
X392961D01*
X393851Y394238D01*
X394649Y394699D01*
X395301Y395351D01*
X395761Y396149D01*
X396000Y397039D01*
Y397961D01*
X395761Y398851D01*
X395301Y399649D01*
X394649Y400301D01*
X393851Y400762D01*
X392961Y401000D01*
D02*
G37*
G36*
X302961D02*
X302039D01*
X301149Y400762D01*
X300351Y400301D01*
X299699Y399649D01*
X299238Y398851D01*
X299000Y397961D01*
Y397039D01*
X299238Y396149D01*
X299699Y395351D01*
X300351Y394699D01*
X301149Y394238D01*
X302039Y394000D01*
X302961D01*
X303851Y394238D01*
X304649Y394699D01*
X305301Y395351D01*
X305762Y396149D01*
X306000Y397039D01*
Y397961D01*
X305762Y398851D01*
X305301Y399649D01*
X304649Y400301D01*
X303851Y400762D01*
X302961Y401000D01*
D02*
G37*
G36*
X491461Y398500D02*
X490539D01*
X489649Y398261D01*
X488851Y397801D01*
X488199Y397149D01*
X487739Y396351D01*
X487500Y395461D01*
Y394539D01*
X487739Y393649D01*
X488199Y392851D01*
X488851Y392199D01*
X489649Y391739D01*
X490539Y391500D01*
X491461D01*
X492351Y391739D01*
X493149Y392199D01*
X493801Y392851D01*
X494262Y393649D01*
X494500Y394539D01*
Y395461D01*
X494262Y396351D01*
X493801Y397149D01*
X493149Y397801D01*
X492351Y398261D01*
X491461Y398500D01*
D02*
G37*
G36*
X165961Y392500D02*
X165039D01*
X164149Y392262D01*
X163351Y391801D01*
X162699Y391149D01*
X162239Y390351D01*
X162000Y389461D01*
Y388539D01*
X162239Y387649D01*
X162699Y386851D01*
X163351Y386199D01*
X164149Y385738D01*
X165039Y385500D01*
X165961D01*
X166851Y385738D01*
X167649Y386199D01*
X168301Y386851D01*
X168762Y387649D01*
X169000Y388539D01*
Y389461D01*
X168762Y390351D01*
X168301Y391149D01*
X167649Y391801D01*
X166851Y392262D01*
X165961Y392500D01*
D02*
G37*
G36*
X392961Y391000D02*
X392039D01*
X391149Y390761D01*
X390351Y390301D01*
X389699Y389649D01*
X389239Y388851D01*
X389000Y387961D01*
Y387039D01*
X389239Y386149D01*
X389699Y385351D01*
X390351Y384699D01*
X391149Y384239D01*
X392039Y384000D01*
X392961D01*
X393851Y384239D01*
X394649Y384699D01*
X395301Y385351D01*
X395761Y386149D01*
X396000Y387039D01*
Y387961D01*
X395761Y388851D01*
X395301Y389649D01*
X394649Y390301D01*
X393851Y390761D01*
X392961Y391000D01*
D02*
G37*
G36*
X302961D02*
X302039D01*
X301149Y390761D01*
X300351Y390301D01*
X299699Y389649D01*
X299238Y388851D01*
X299000Y387961D01*
Y387039D01*
X299238Y386149D01*
X299699Y385351D01*
X300351Y384699D01*
X301149Y384239D01*
X302039Y384000D01*
X302961D01*
X303851Y384239D01*
X304649Y384699D01*
X305301Y385351D01*
X305762Y386149D01*
X306000Y387039D01*
Y387961D01*
X305762Y388851D01*
X305301Y389649D01*
X304649Y390301D01*
X303851Y390761D01*
X302961Y391000D01*
D02*
G37*
G36*
X491461Y388500D02*
X490539D01*
X489649Y388262D01*
X488851Y387801D01*
X488199Y387149D01*
X487739Y386351D01*
X487500Y385461D01*
Y384539D01*
X487739Y383649D01*
X488199Y382851D01*
X488851Y382199D01*
X489649Y381738D01*
X490539Y381500D01*
X491461D01*
X492351Y381738D01*
X493149Y382199D01*
X493801Y382851D01*
X494262Y383649D01*
X494500Y384539D01*
Y385461D01*
X494262Y386351D01*
X493801Y387149D01*
X493149Y387801D01*
X492351Y388262D01*
X491461Y388500D01*
D02*
G37*
G36*
X165961Y382500D02*
X165039D01*
X164149Y382261D01*
X163351Y381801D01*
X162699Y381149D01*
X162239Y380351D01*
X162000Y379461D01*
Y378539D01*
X162239Y377649D01*
X162699Y376851D01*
X163351Y376199D01*
X164149Y375739D01*
X165039Y375500D01*
X165961D01*
X166851Y375739D01*
X167649Y376199D01*
X168301Y376851D01*
X168762Y377649D01*
X169000Y378539D01*
Y379461D01*
X168762Y380351D01*
X168301Y381149D01*
X167649Y381801D01*
X166851Y382261D01*
X165961Y382500D01*
D02*
G37*
G36*
X392961Y381000D02*
X392039D01*
X391149Y380762D01*
X390351Y380301D01*
X389699Y379649D01*
X389239Y378851D01*
X389000Y377961D01*
Y377039D01*
X389239Y376149D01*
X389699Y375351D01*
X390351Y374699D01*
X391149Y374238D01*
X392039Y374000D01*
X392961D01*
X393851Y374238D01*
X394649Y374699D01*
X395301Y375351D01*
X395761Y376149D01*
X396000Y377039D01*
Y377961D01*
X395761Y378851D01*
X395301Y379649D01*
X394649Y380301D01*
X393851Y380762D01*
X392961Y381000D01*
D02*
G37*
G36*
X302961D02*
X302039D01*
X301149Y380762D01*
X300351Y380301D01*
X299699Y379649D01*
X299238Y378851D01*
X299000Y377961D01*
Y377039D01*
X299238Y376149D01*
X299699Y375351D01*
X300351Y374699D01*
X301149Y374238D01*
X302039Y374000D01*
X302961D01*
X303851Y374238D01*
X304649Y374699D01*
X305301Y375351D01*
X305762Y376149D01*
X306000Y377039D01*
Y377961D01*
X305762Y378851D01*
X305301Y379649D01*
X304649Y380301D01*
X303851Y380762D01*
X302961Y381000D01*
D02*
G37*
G36*
X165961Y372500D02*
X165039D01*
X164149Y372262D01*
X163351Y371801D01*
X162699Y371149D01*
X162239Y370351D01*
X162000Y369461D01*
Y368539D01*
X162239Y367649D01*
X162699Y366851D01*
X163351Y366199D01*
X164149Y365739D01*
X165039Y365500D01*
X165961D01*
X166851Y365739D01*
X167649Y366199D01*
X168301Y366851D01*
X168762Y367649D01*
X169000Y368539D01*
Y369461D01*
X168762Y370351D01*
X168301Y371149D01*
X167649Y371801D01*
X166851Y372262D01*
X165961Y372500D01*
D02*
G37*
G36*
X392961Y371000D02*
X392039D01*
X391149Y370761D01*
X390351Y370301D01*
X389699Y369649D01*
X389239Y368851D01*
X389000Y367961D01*
Y367039D01*
X389239Y366149D01*
X389699Y365351D01*
X390351Y364699D01*
X391149Y364239D01*
X392039Y364000D01*
X392961D01*
X393851Y364239D01*
X394649Y364699D01*
X395301Y365351D01*
X395761Y366149D01*
X396000Y367039D01*
Y367961D01*
X395761Y368851D01*
X395301Y369649D01*
X394649Y370301D01*
X393851Y370761D01*
X392961Y371000D01*
D02*
G37*
G36*
X302961D02*
X302039D01*
X301149Y370761D01*
X300351Y370301D01*
X299699Y369649D01*
X299238Y368851D01*
X299000Y367961D01*
Y367039D01*
X299238Y366149D01*
X299699Y365351D01*
X300351Y364699D01*
X301149Y364239D01*
X302039Y364000D01*
X302961D01*
X303851Y364239D01*
X304649Y364699D01*
X305301Y365351D01*
X305762Y366149D01*
X306000Y367039D01*
Y367961D01*
X305762Y368851D01*
X305301Y369649D01*
X304649Y370301D01*
X303851Y370761D01*
X302961Y371000D01*
D02*
G37*
G36*
X165961Y362500D02*
X165039D01*
X164149Y362262D01*
X163351Y361801D01*
X162699Y361149D01*
X162239Y360351D01*
X162000Y359461D01*
Y358539D01*
X162239Y357649D01*
X162699Y356851D01*
X163351Y356199D01*
X164149Y355738D01*
X165039Y355500D01*
X165961D01*
X166851Y355738D01*
X167649Y356199D01*
X168301Y356851D01*
X168762Y357649D01*
X169000Y358539D01*
Y359461D01*
X168762Y360351D01*
X168301Y361149D01*
X167649Y361801D01*
X166851Y362262D01*
X165961Y362500D01*
D02*
G37*
G36*
X392961Y361000D02*
X392039D01*
X391149Y360761D01*
X390351Y360301D01*
X389699Y359649D01*
X389239Y358851D01*
X389000Y357961D01*
Y357039D01*
X389239Y356149D01*
X389699Y355351D01*
X390351Y354699D01*
X391149Y354239D01*
X392039Y354000D01*
X392961D01*
X393851Y354239D01*
X394649Y354699D01*
X395301Y355351D01*
X395761Y356149D01*
X396000Y357039D01*
Y357961D01*
X395761Y358851D01*
X395301Y359649D01*
X394649Y360301D01*
X393851Y360761D01*
X392961Y361000D01*
D02*
G37*
G36*
X302961D02*
X302039D01*
X301149Y360761D01*
X300351Y360301D01*
X299699Y359649D01*
X299238Y358851D01*
X299000Y357961D01*
Y357039D01*
X299238Y356149D01*
X299699Y355351D01*
X300351Y354699D01*
X301149Y354239D01*
X302039Y354000D01*
X302961D01*
X303851Y354239D01*
X304649Y354699D01*
X305301Y355351D01*
X305762Y356149D01*
X306000Y357039D01*
Y357961D01*
X305762Y358851D01*
X305301Y359649D01*
X304649Y360301D01*
X303851Y360761D01*
X302961Y361000D01*
D02*
G37*
G36*
X165961Y352500D02*
X165039D01*
X164149Y352261D01*
X163351Y351801D01*
X162699Y351149D01*
X162239Y350351D01*
X162000Y349461D01*
Y348539D01*
X162239Y347649D01*
X162699Y346851D01*
X163351Y346199D01*
X164149Y345739D01*
X165039Y345500D01*
X165961D01*
X166851Y345739D01*
X167649Y346199D01*
X168301Y346851D01*
X168762Y347649D01*
X169000Y348539D01*
Y349461D01*
X168762Y350351D01*
X168301Y351149D01*
X167649Y351801D01*
X166851Y352261D01*
X165961Y352500D01*
D02*
G37*
G36*
X392961Y351000D02*
X392039D01*
X391149Y350762D01*
X390351Y350301D01*
X389699Y349649D01*
X389239Y348851D01*
X389000Y347961D01*
Y347039D01*
X389239Y346149D01*
X389699Y345351D01*
X390351Y344699D01*
X391149Y344238D01*
X392039Y344000D01*
X392961D01*
X393851Y344238D01*
X394649Y344699D01*
X395301Y345351D01*
X395761Y346149D01*
X396000Y347039D01*
Y347961D01*
X395761Y348851D01*
X395301Y349649D01*
X394649Y350301D01*
X393851Y350762D01*
X392961Y351000D01*
D02*
G37*
G36*
X302961D02*
X302039D01*
X301149Y350762D01*
X300351Y350301D01*
X299699Y349649D01*
X299238Y348851D01*
X299000Y347961D01*
Y347039D01*
X299238Y346149D01*
X299699Y345351D01*
X300351Y344699D01*
X301149Y344238D01*
X302039Y344000D01*
X302961D01*
X303851Y344238D01*
X304649Y344699D01*
X305301Y345351D01*
X305762Y346149D01*
X306000Y347039D01*
Y347961D01*
X305762Y348851D01*
X305301Y349649D01*
X304649Y350301D01*
X303851Y350762D01*
X302961Y351000D01*
D02*
G37*
G36*
X165961Y342500D02*
X165039D01*
X164149Y342262D01*
X163351Y341801D01*
X162699Y341149D01*
X162239Y340351D01*
X162000Y339461D01*
Y338539D01*
X162239Y337649D01*
X162699Y336851D01*
X163351Y336199D01*
X164149Y335738D01*
X165039Y335500D01*
X165961D01*
X166851Y335738D01*
X167649Y336199D01*
X168301Y336851D01*
X168762Y337649D01*
X169000Y338539D01*
Y339461D01*
X168762Y340351D01*
X168301Y341149D01*
X167649Y341801D01*
X166851Y342262D01*
X165961Y342500D01*
D02*
G37*
G36*
X392961Y341000D02*
X392039D01*
X391149Y340761D01*
X390351Y340301D01*
X389699Y339649D01*
X389239Y338851D01*
X389000Y337961D01*
Y337039D01*
X389239Y336149D01*
X389699Y335351D01*
X390351Y334699D01*
X391149Y334239D01*
X392039Y334000D01*
X392961D01*
X393851Y334239D01*
X394649Y334699D01*
X395301Y335351D01*
X395761Y336149D01*
X396000Y337039D01*
Y337961D01*
X395761Y338851D01*
X395301Y339649D01*
X394649Y340301D01*
X393851Y340761D01*
X392961Y341000D01*
D02*
G37*
G36*
X302961D02*
X302039D01*
X301149Y340761D01*
X300351Y340301D01*
X299699Y339649D01*
X299238Y338851D01*
X299000Y337961D01*
Y337039D01*
X299238Y336149D01*
X299699Y335351D01*
X300351Y334699D01*
X301149Y334239D01*
X302039Y334000D01*
X302961D01*
X303851Y334239D01*
X304649Y334699D01*
X305301Y335351D01*
X305762Y336149D01*
X306000Y337039D01*
Y337961D01*
X305762Y338851D01*
X305301Y339649D01*
X304649Y340301D01*
X303851Y340761D01*
X302961Y341000D01*
D02*
G37*
G36*
X453461Y338500D02*
X452539D01*
X451649Y338262D01*
X450851Y337801D01*
X450199Y337149D01*
X449739Y336351D01*
X449500Y335461D01*
Y334539D01*
X449739Y333649D01*
X450199Y332851D01*
X450851Y332199D01*
X451649Y331738D01*
X452539Y331500D01*
X453461D01*
X454351Y331738D01*
X455149Y332199D01*
X455801Y332851D01*
X456261Y333649D01*
X456500Y334539D01*
Y335461D01*
X456261Y336351D01*
X455801Y337149D01*
X455149Y337801D01*
X454351Y338262D01*
X453461Y338500D01*
D02*
G37*
G36*
X165961Y332500D02*
X165039D01*
X164149Y332261D01*
X163351Y331801D01*
X162699Y331149D01*
X162239Y330351D01*
X162000Y329461D01*
Y328539D01*
X162239Y327649D01*
X162699Y326851D01*
X163351Y326199D01*
X164149Y325739D01*
X165039Y325500D01*
X165961D01*
X166851Y325739D01*
X167649Y326199D01*
X168301Y326851D01*
X168762Y327649D01*
X169000Y328539D01*
Y329461D01*
X168762Y330351D01*
X168301Y331149D01*
X167649Y331801D01*
X166851Y332261D01*
X165961Y332500D01*
D02*
G37*
G36*
X392961Y331000D02*
X392039D01*
X391149Y330762D01*
X390351Y330301D01*
X389699Y329649D01*
X389239Y328851D01*
X389000Y327961D01*
Y327039D01*
X389239Y326149D01*
X389699Y325351D01*
X390351Y324699D01*
X391149Y324238D01*
X392039Y324000D01*
X392961D01*
X393851Y324238D01*
X394649Y324699D01*
X395301Y325351D01*
X395761Y326149D01*
X396000Y327039D01*
Y327961D01*
X395761Y328851D01*
X395301Y329649D01*
X394649Y330301D01*
X393851Y330762D01*
X392961Y331000D01*
D02*
G37*
G36*
X302961D02*
X302039D01*
X301149Y330762D01*
X300351Y330301D01*
X299699Y329649D01*
X299238Y328851D01*
X299000Y327961D01*
Y327039D01*
X299238Y326149D01*
X299699Y325351D01*
X300351Y324699D01*
X301149Y324238D01*
X302039Y324000D01*
X302961D01*
X303851Y324238D01*
X304649Y324699D01*
X305301Y325351D01*
X305762Y326149D01*
X306000Y327039D01*
Y327961D01*
X305762Y328851D01*
X305301Y329649D01*
X304649Y330301D01*
X303851Y330762D01*
X302961Y331000D01*
D02*
G37*
G36*
X453461Y328500D02*
X452539D01*
X451649Y328261D01*
X450851Y327801D01*
X450199Y327149D01*
X449739Y326351D01*
X449500Y325461D01*
Y324539D01*
X449739Y323649D01*
X450199Y322851D01*
X450851Y322199D01*
X451649Y321739D01*
X452539Y321500D01*
X453461D01*
X454351Y321739D01*
X455149Y322199D01*
X455801Y322851D01*
X456261Y323649D01*
X456500Y324539D01*
Y325461D01*
X456261Y326351D01*
X455801Y327149D01*
X455149Y327801D01*
X454351Y328261D01*
X453461Y328500D01*
D02*
G37*
G36*
X165961Y322500D02*
X165039D01*
X164149Y322262D01*
X163351Y321801D01*
X162699Y321149D01*
X162239Y320351D01*
X162000Y319461D01*
Y318539D01*
X162239Y317649D01*
X162699Y316851D01*
X163351Y316199D01*
X164149Y315739D01*
X165039Y315500D01*
X165961D01*
X166851Y315739D01*
X167649Y316199D01*
X168301Y316851D01*
X168762Y317649D01*
X169000Y318539D01*
Y319461D01*
X168762Y320351D01*
X168301Y321149D01*
X167649Y321801D01*
X166851Y322262D01*
X165961Y322500D01*
D02*
G37*
G36*
X392961Y321000D02*
X392039D01*
X391149Y320761D01*
X390351Y320301D01*
X389699Y319649D01*
X389239Y318851D01*
X389000Y317961D01*
Y317039D01*
X389239Y316149D01*
X389699Y315351D01*
X390351Y314699D01*
X391149Y314239D01*
X392039Y314000D01*
X392961D01*
X393851Y314239D01*
X394649Y314699D01*
X395301Y315351D01*
X395761Y316149D01*
X396000Y317039D01*
Y317961D01*
X395761Y318851D01*
X395301Y319649D01*
X394649Y320301D01*
X393851Y320761D01*
X392961Y321000D01*
D02*
G37*
G36*
X302961D02*
X302039D01*
X301149Y320761D01*
X300351Y320301D01*
X299699Y319649D01*
X299238Y318851D01*
X299000Y317961D01*
Y317039D01*
X299238Y316149D01*
X299699Y315351D01*
X300351Y314699D01*
X301149Y314239D01*
X302039Y314000D01*
X302961D01*
X303851Y314239D01*
X304649Y314699D01*
X305301Y315351D01*
X305762Y316149D01*
X306000Y317039D01*
Y317961D01*
X305762Y318851D01*
X305301Y319649D01*
X304649Y320301D01*
X303851Y320761D01*
X302961Y321000D01*
D02*
G37*
G36*
X453461Y318500D02*
X452539D01*
X451649Y318262D01*
X450851Y317801D01*
X450199Y317149D01*
X449739Y316351D01*
X449500Y315461D01*
Y314539D01*
X449739Y313649D01*
X450199Y312851D01*
X450851Y312199D01*
X451649Y311738D01*
X452539Y311500D01*
X453461D01*
X454351Y311738D01*
X455149Y312199D01*
X455801Y312851D01*
X456261Y313649D01*
X456500Y314539D01*
Y315461D01*
X456261Y316351D01*
X455801Y317149D01*
X455149Y317801D01*
X454351Y318262D01*
X453461Y318500D01*
D02*
G37*
G36*
X392961Y311000D02*
X392039D01*
X391149Y310761D01*
X390351Y310301D01*
X389699Y309649D01*
X389239Y308851D01*
X389000Y307961D01*
Y307039D01*
X389239Y306149D01*
X389699Y305351D01*
X390351Y304699D01*
X391149Y304239D01*
X392039Y304000D01*
X392961D01*
X393851Y304239D01*
X394649Y304699D01*
X395301Y305351D01*
X395761Y306149D01*
X396000Y307039D01*
Y307961D01*
X395761Y308851D01*
X395301Y309649D01*
X394649Y310301D01*
X393851Y310761D01*
X392961Y311000D01*
D02*
G37*
G36*
X302961D02*
X302039D01*
X301149Y310761D01*
X300351Y310301D01*
X299699Y309649D01*
X299238Y308851D01*
X299000Y307961D01*
Y307039D01*
X299238Y306149D01*
X299699Y305351D01*
X300351Y304699D01*
X301149Y304239D01*
X302039Y304000D01*
X302961D01*
X303851Y304239D01*
X304649Y304699D01*
X305301Y305351D01*
X305762Y306149D01*
X306000Y307039D01*
Y307961D01*
X305762Y308851D01*
X305301Y309649D01*
X304649Y310301D01*
X303851Y310761D01*
X302961Y311000D01*
D02*
G37*
G36*
X453461Y308500D02*
X452539D01*
X451649Y308261D01*
X450851Y307801D01*
X450199Y307149D01*
X449739Y306351D01*
X449500Y305461D01*
Y304539D01*
X449739Y303649D01*
X450199Y302851D01*
X450851Y302199D01*
X451649Y301739D01*
X452539Y301500D01*
X453461D01*
X454351Y301739D01*
X455149Y302199D01*
X455801Y302851D01*
X456261Y303649D01*
X456500Y304539D01*
Y305461D01*
X456261Y306351D01*
X455801Y307149D01*
X455149Y307801D01*
X454351Y308261D01*
X453461Y308500D01*
D02*
G37*
G36*
X392961Y301000D02*
X392039D01*
X391149Y300762D01*
X390351Y300301D01*
X389699Y299649D01*
X389239Y298851D01*
X389000Y297961D01*
Y297039D01*
X389239Y296149D01*
X389699Y295351D01*
X390351Y294699D01*
X391149Y294238D01*
X392039Y294000D01*
X392961D01*
X393851Y294238D01*
X394649Y294699D01*
X395301Y295351D01*
X395761Y296149D01*
X396000Y297039D01*
Y297961D01*
X395761Y298851D01*
X395301Y299649D01*
X394649Y300301D01*
X393851Y300762D01*
X392961Y301000D01*
D02*
G37*
G36*
X302961D02*
X302039D01*
X301149Y300762D01*
X300351Y300301D01*
X299699Y299649D01*
X299238Y298851D01*
X299000Y297961D01*
Y297039D01*
X299238Y296149D01*
X299699Y295351D01*
X300351Y294699D01*
X301149Y294238D01*
X302039Y294000D01*
X302961D01*
X303851Y294238D01*
X304649Y294699D01*
X305301Y295351D01*
X305762Y296149D01*
X306000Y297039D01*
Y297961D01*
X305762Y298851D01*
X305301Y299649D01*
X304649Y300301D01*
X303851Y300762D01*
X302961Y301000D01*
D02*
G37*
G36*
X453461Y298500D02*
X452539D01*
X451649Y298261D01*
X450851Y297801D01*
X450199Y297149D01*
X449739Y296351D01*
X449500Y295461D01*
Y294539D01*
X449739Y293649D01*
X450199Y292851D01*
X450851Y292199D01*
X451649Y291739D01*
X452539Y291500D01*
X453461D01*
X454351Y291739D01*
X455149Y292199D01*
X455801Y292851D01*
X456261Y293649D01*
X456500Y294539D01*
Y295461D01*
X456261Y296351D01*
X455801Y297149D01*
X455149Y297801D01*
X454351Y298261D01*
X453461Y298500D01*
D02*
G37*
G36*
X392961Y291000D02*
X392039D01*
X391149Y290761D01*
X390351Y290301D01*
X389699Y289649D01*
X389239Y288851D01*
X389000Y287961D01*
Y287039D01*
X389239Y286149D01*
X389699Y285351D01*
X390351Y284699D01*
X391149Y284239D01*
X392039Y284000D01*
X392961D01*
X393851Y284239D01*
X394649Y284699D01*
X395301Y285351D01*
X395761Y286149D01*
X396000Y287039D01*
Y287961D01*
X395761Y288851D01*
X395301Y289649D01*
X394649Y290301D01*
X393851Y290761D01*
X392961Y291000D01*
D02*
G37*
G36*
X302961D02*
X302039D01*
X301149Y290761D01*
X300351Y290301D01*
X299699Y289649D01*
X299238Y288851D01*
X299000Y287961D01*
Y287039D01*
X299238Y286149D01*
X299699Y285351D01*
X300351Y284699D01*
X301149Y284239D01*
X302039Y284000D01*
X302961D01*
X303851Y284239D01*
X304649Y284699D01*
X305301Y285351D01*
X305762Y286149D01*
X306000Y287039D01*
Y287961D01*
X305762Y288851D01*
X305301Y289649D01*
X304649Y290301D01*
X303851Y290761D01*
X302961Y291000D01*
D02*
G37*
G36*
X453461Y288500D02*
X452539D01*
X451649Y288262D01*
X450851Y287801D01*
X450199Y287149D01*
X449739Y286351D01*
X449500Y285461D01*
Y284539D01*
X449739Y283649D01*
X450199Y282851D01*
X450851Y282199D01*
X451649Y281738D01*
X452539Y281500D01*
X453461D01*
X454351Y281738D01*
X455149Y282199D01*
X455801Y282851D01*
X456261Y283649D01*
X456500Y284539D01*
Y285461D01*
X456261Y286351D01*
X455801Y287149D01*
X455149Y287801D01*
X454351Y288262D01*
X453461Y288500D01*
D02*
G37*
G36*
X164961Y283000D02*
X164039D01*
X163149Y282762D01*
X162351Y282301D01*
X161699Y281649D01*
X161239Y280851D01*
X161000Y279961D01*
Y279039D01*
X161239Y278149D01*
X161699Y277351D01*
X162351Y276699D01*
X163149Y276238D01*
X164039Y276000D01*
X164961D01*
X165851Y276238D01*
X166649Y276699D01*
X167301Y277351D01*
X167762Y278149D01*
X168000Y279039D01*
Y279961D01*
X167762Y280851D01*
X167301Y281649D01*
X166649Y282301D01*
X165851Y282762D01*
X164961Y283000D01*
D02*
G37*
G36*
X392961Y281000D02*
X392039D01*
X391149Y280762D01*
X390351Y280301D01*
X389699Y279649D01*
X389239Y278851D01*
X389000Y277961D01*
Y277039D01*
X389239Y276149D01*
X389699Y275351D01*
X390351Y274699D01*
X391149Y274238D01*
X392039Y274000D01*
X392961D01*
X393851Y274238D01*
X394649Y274699D01*
X395301Y275351D01*
X395761Y276149D01*
X396000Y277039D01*
Y277961D01*
X395761Y278851D01*
X395301Y279649D01*
X394649Y280301D01*
X393851Y280762D01*
X392961Y281000D01*
D02*
G37*
G36*
X302961D02*
X302039D01*
X301149Y280762D01*
X300351Y280301D01*
X299699Y279649D01*
X299238Y278851D01*
X299000Y277961D01*
Y277039D01*
X299238Y276149D01*
X299699Y275351D01*
X300351Y274699D01*
X301149Y274238D01*
X302039Y274000D01*
X302961D01*
X303851Y274238D01*
X304649Y274699D01*
X305301Y275351D01*
X305762Y276149D01*
X306000Y277039D01*
Y277961D01*
X305762Y278851D01*
X305301Y279649D01*
X304649Y280301D01*
X303851Y280762D01*
X302961Y281000D01*
D02*
G37*
G36*
X453461Y278500D02*
X452539D01*
X451649Y278261D01*
X450851Y277801D01*
X450199Y277149D01*
X449739Y276351D01*
X449500Y275461D01*
Y274539D01*
X449739Y273649D01*
X450199Y272851D01*
X450851Y272199D01*
X451649Y271739D01*
X452539Y271500D01*
X453461D01*
X454351Y271739D01*
X455149Y272199D01*
X455801Y272851D01*
X456261Y273649D01*
X456500Y274539D01*
Y275461D01*
X456261Y276351D01*
X455801Y277149D01*
X455149Y277801D01*
X454351Y278261D01*
X453461Y278500D01*
D02*
G37*
G36*
X164961Y273000D02*
X164039D01*
X163149Y272762D01*
X162351Y272301D01*
X161699Y271649D01*
X161239Y270851D01*
X161000Y269961D01*
Y269039D01*
X161239Y268149D01*
X161699Y267351D01*
X162351Y266699D01*
X163149Y266238D01*
X164039Y266000D01*
X164961D01*
X165851Y266238D01*
X166649Y266699D01*
X167301Y267351D01*
X167762Y268149D01*
X168000Y269039D01*
Y269961D01*
X167762Y270851D01*
X167301Y271649D01*
X166649Y272301D01*
X165851Y272762D01*
X164961Y273000D01*
D02*
G37*
G36*
X392961Y271000D02*
X392039D01*
X391149Y270761D01*
X390351Y270301D01*
X389699Y269649D01*
X389239Y268851D01*
X389000Y267961D01*
Y267039D01*
X389239Y266149D01*
X389699Y265351D01*
X390351Y264699D01*
X391149Y264239D01*
X392039Y264000D01*
X392961D01*
X393851Y264239D01*
X394649Y264699D01*
X395301Y265351D01*
X395761Y266149D01*
X396000Y267039D01*
Y267961D01*
X395761Y268851D01*
X395301Y269649D01*
X394649Y270301D01*
X393851Y270761D01*
X392961Y271000D01*
D02*
G37*
G36*
X302961D02*
X302039D01*
X301149Y270761D01*
X300351Y270301D01*
X299699Y269649D01*
X299238Y268851D01*
X299000Y267961D01*
Y267039D01*
X299238Y266149D01*
X299699Y265351D01*
X300351Y264699D01*
X301149Y264239D01*
X302039Y264000D01*
X302961D01*
X303851Y264239D01*
X304649Y264699D01*
X305301Y265351D01*
X305762Y266149D01*
X306000Y267039D01*
Y267961D01*
X305762Y268851D01*
X305301Y269649D01*
X304649Y270301D01*
X303851Y270761D01*
X302961Y271000D01*
D02*
G37*
G36*
X164961Y263000D02*
X164039D01*
X163149Y262761D01*
X162351Y262301D01*
X161699Y261649D01*
X161239Y260851D01*
X161000Y259961D01*
Y259039D01*
X161239Y258149D01*
X161699Y257351D01*
X162351Y256699D01*
X163149Y256239D01*
X164039Y256000D01*
X164961D01*
X165851Y256239D01*
X166649Y256699D01*
X167301Y257351D01*
X167762Y258149D01*
X168000Y259039D01*
Y259961D01*
X167762Y260851D01*
X167301Y261649D01*
X166649Y262301D01*
X165851Y262761D01*
X164961Y263000D01*
D02*
G37*
G36*
X392961Y261000D02*
X392039D01*
X391149Y260761D01*
X390351Y260301D01*
X389699Y259649D01*
X389239Y258851D01*
X389000Y257961D01*
Y257039D01*
X389239Y256149D01*
X389699Y255351D01*
X390351Y254699D01*
X391149Y254239D01*
X392039Y254000D01*
X392961D01*
X393851Y254239D01*
X394649Y254699D01*
X395301Y255351D01*
X395761Y256149D01*
X396000Y257039D01*
Y257961D01*
X395761Y258851D01*
X395301Y259649D01*
X394649Y260301D01*
X393851Y260761D01*
X392961Y261000D01*
D02*
G37*
G36*
X302961D02*
X302039D01*
X301149Y260761D01*
X300351Y260301D01*
X299699Y259649D01*
X299238Y258851D01*
X299000Y257961D01*
Y257039D01*
X299238Y256149D01*
X299699Y255351D01*
X300351Y254699D01*
X301149Y254239D01*
X302039Y254000D01*
X302961D01*
X303851Y254239D01*
X304649Y254699D01*
X305301Y255351D01*
X305762Y256149D01*
X306000Y257039D01*
Y257961D01*
X305762Y258851D01*
X305301Y259649D01*
X304649Y260301D01*
X303851Y260761D01*
X302961Y261000D01*
D02*
G37*
G36*
X164961Y253000D02*
X164039D01*
X163149Y252762D01*
X162351Y252301D01*
X161699Y251649D01*
X161239Y250851D01*
X161000Y249961D01*
Y249039D01*
X161239Y248149D01*
X161699Y247351D01*
X162351Y246699D01*
X163149Y246238D01*
X164039Y246000D01*
X164961D01*
X165851Y246238D01*
X166649Y246699D01*
X167301Y247351D01*
X167762Y248149D01*
X168000Y249039D01*
Y249961D01*
X167762Y250851D01*
X167301Y251649D01*
X166649Y252301D01*
X165851Y252762D01*
X164961Y253000D01*
D02*
G37*
G36*
X392961Y251000D02*
X392039D01*
X391149Y250762D01*
X390351Y250301D01*
X389699Y249649D01*
X389239Y248851D01*
X389000Y247961D01*
Y247039D01*
X389239Y246149D01*
X389699Y245351D01*
X390351Y244699D01*
X391149Y244238D01*
X392039Y244000D01*
X392961D01*
X393851Y244238D01*
X394649Y244699D01*
X395301Y245351D01*
X395761Y246149D01*
X396000Y247039D01*
Y247961D01*
X395761Y248851D01*
X395301Y249649D01*
X394649Y250301D01*
X393851Y250762D01*
X392961Y251000D01*
D02*
G37*
G36*
X302961D02*
X302039D01*
X301149Y250762D01*
X300351Y250301D01*
X299699Y249649D01*
X299238Y248851D01*
X299000Y247961D01*
Y247039D01*
X299238Y246149D01*
X299699Y245351D01*
X300351Y244699D01*
X301149Y244238D01*
X302039Y244000D01*
X302961D01*
X303851Y244238D01*
X304649Y244699D01*
X305301Y245351D01*
X305762Y246149D01*
X306000Y247039D01*
Y247961D01*
X305762Y248851D01*
X305301Y249649D01*
X304649Y250301D01*
X303851Y250762D01*
X302961Y251000D01*
D02*
G37*
G36*
X164961Y243000D02*
X164039D01*
X163149Y242761D01*
X162351Y242301D01*
X161699Y241649D01*
X161239Y240851D01*
X161000Y239961D01*
Y239039D01*
X161239Y238149D01*
X161699Y237351D01*
X162351Y236699D01*
X163149Y236239D01*
X164039Y236000D01*
X164961D01*
X165851Y236239D01*
X166649Y236699D01*
X167301Y237351D01*
X167762Y238149D01*
X168000Y239039D01*
Y239961D01*
X167762Y240851D01*
X167301Y241649D01*
X166649Y242301D01*
X165851Y242761D01*
X164961Y243000D01*
D02*
G37*
G36*
X392961Y241000D02*
X392039D01*
X391149Y240761D01*
X390351Y240301D01*
X389699Y239649D01*
X389239Y238851D01*
X389000Y237961D01*
Y237039D01*
X389239Y236149D01*
X389699Y235351D01*
X390351Y234699D01*
X391149Y234239D01*
X392039Y234000D01*
X392961D01*
X393851Y234239D01*
X394649Y234699D01*
X395301Y235351D01*
X395761Y236149D01*
X396000Y237039D01*
Y237961D01*
X395761Y238851D01*
X395301Y239649D01*
X394649Y240301D01*
X393851Y240761D01*
X392961Y241000D01*
D02*
G37*
G36*
X302961D02*
X302039D01*
X301149Y240761D01*
X300351Y240301D01*
X299699Y239649D01*
X299238Y238851D01*
X299000Y237961D01*
Y237039D01*
X299238Y236149D01*
X299699Y235351D01*
X300351Y234699D01*
X301149Y234239D01*
X302039Y234000D01*
X302961D01*
X303851Y234239D01*
X304649Y234699D01*
X305301Y235351D01*
X305762Y236149D01*
X306000Y237039D01*
Y237961D01*
X305762Y238851D01*
X305301Y239649D01*
X304649Y240301D01*
X303851Y240761D01*
X302961Y241000D01*
D02*
G37*
G36*
X164961Y233000D02*
X164039D01*
X163149Y232762D01*
X162351Y232301D01*
X161699Y231649D01*
X161239Y230851D01*
X161000Y229961D01*
Y229039D01*
X161239Y228149D01*
X161699Y227351D01*
X162351Y226699D01*
X163149Y226238D01*
X164039Y226000D01*
X164961D01*
X165851Y226238D01*
X166649Y226699D01*
X167301Y227351D01*
X167762Y228149D01*
X168000Y229039D01*
Y229961D01*
X167762Y230851D01*
X167301Y231649D01*
X166649Y232301D01*
X165851Y232762D01*
X164961Y233000D01*
D02*
G37*
G36*
X392961Y231000D02*
X392039D01*
X391149Y230762D01*
X390351Y230301D01*
X389699Y229649D01*
X389239Y228851D01*
X389000Y227961D01*
Y227039D01*
X389239Y226149D01*
X389699Y225351D01*
X390351Y224699D01*
X391149Y224238D01*
X392039Y224000D01*
X392961D01*
X393851Y224238D01*
X394649Y224699D01*
X395301Y225351D01*
X395761Y226149D01*
X396000Y227039D01*
Y227961D01*
X395761Y228851D01*
X395301Y229649D01*
X394649Y230301D01*
X393851Y230762D01*
X392961Y231000D01*
D02*
G37*
G36*
X302961D02*
X302039D01*
X301149Y230762D01*
X300351Y230301D01*
X299699Y229649D01*
X299238Y228851D01*
X299000Y227961D01*
Y227039D01*
X299238Y226149D01*
X299699Y225351D01*
X300351Y224699D01*
X301149Y224238D01*
X302039Y224000D01*
X302961D01*
X303851Y224238D01*
X304649Y224699D01*
X305301Y225351D01*
X305762Y226149D01*
X306000Y227039D01*
Y227961D01*
X305762Y228851D01*
X305301Y229649D01*
X304649Y230301D01*
X303851Y230762D01*
X302961Y231000D01*
D02*
G37*
G36*
X164961Y223000D02*
X164039D01*
X163149Y222762D01*
X162351Y222301D01*
X161699Y221649D01*
X161239Y220851D01*
X161000Y219961D01*
Y219039D01*
X161239Y218149D01*
X161699Y217351D01*
X162351Y216699D01*
X163149Y216238D01*
X164039Y216000D01*
X164961D01*
X165851Y216238D01*
X166649Y216699D01*
X167301Y217351D01*
X167762Y218149D01*
X168000Y219039D01*
Y219961D01*
X167762Y220851D01*
X167301Y221649D01*
X166649Y222301D01*
X165851Y222762D01*
X164961Y223000D01*
D02*
G37*
G36*
Y213000D02*
X164750D01*
Y209750D01*
X168000D01*
Y209961D01*
X167762Y210851D01*
X167301Y211649D01*
X166649Y212301D01*
X165851Y212761D01*
X164961Y213000D01*
D02*
G37*
G36*
X164250D02*
X164039D01*
X163149Y212761D01*
X162351Y212301D01*
X161699Y211649D01*
X161239Y210851D01*
X161000Y209961D01*
Y209750D01*
X164250D01*
Y213000D01*
D02*
G37*
G36*
X168000Y209250D02*
X164750D01*
Y206000D01*
X164961D01*
X165851Y206239D01*
X166649Y206699D01*
X167301Y207351D01*
X167762Y208149D01*
X168000Y209039D01*
Y209250D01*
D02*
G37*
G36*
X164250D02*
X161000D01*
Y209039D01*
X161239Y208149D01*
X161699Y207351D01*
X162351Y206699D01*
X163149Y206239D01*
X164039Y206000D01*
X164250D01*
Y209250D01*
D02*
G37*
G36*
X241461Y203500D02*
X241250D01*
Y200250D01*
X244500D01*
Y200461D01*
X244262Y201351D01*
X243801Y202149D01*
X243149Y202801D01*
X242351Y203261D01*
X241461Y203500D01*
D02*
G37*
G36*
X240750D02*
X240539D01*
X239649Y203261D01*
X238851Y202801D01*
X238199Y202149D01*
X237738Y201351D01*
X237500Y200461D01*
Y200250D01*
X240750D01*
Y203500D01*
D02*
G37*
G36*
X209461Y202500D02*
X209250D01*
Y199250D01*
X212500D01*
Y199461D01*
X212262Y200351D01*
X211801Y201149D01*
X211149Y201801D01*
X210351Y202261D01*
X209461Y202500D01*
D02*
G37*
G36*
X208750D02*
X208539D01*
X207649Y202261D01*
X206851Y201801D01*
X206199Y201149D01*
X205738Y200351D01*
X205500Y199461D01*
Y199250D01*
X208750D01*
Y202500D01*
D02*
G37*
G36*
X244500Y199750D02*
X241250D01*
Y196500D01*
X241461D01*
X242351Y196739D01*
X243149Y197199D01*
X243801Y197851D01*
X244262Y198649D01*
X244500Y199539D01*
Y199750D01*
D02*
G37*
G36*
X240750D02*
X237500D01*
Y199539D01*
X237738Y198649D01*
X238199Y197851D01*
X238851Y197199D01*
X239649Y196739D01*
X240539Y196500D01*
X240750D01*
Y199750D01*
D02*
G37*
G36*
X231461Y203500D02*
X230539D01*
X229649Y203261D01*
X228851Y202801D01*
X228199Y202149D01*
X227738Y201351D01*
X227500Y200461D01*
Y199539D01*
X227738Y198649D01*
X228199Y197851D01*
X228851Y197199D01*
X229649Y196739D01*
X230539Y196500D01*
X231461D01*
X232351Y196739D01*
X233149Y197199D01*
X233801Y197851D01*
X234261Y198649D01*
X234500Y199539D01*
Y200461D01*
X234261Y201351D01*
X233801Y202149D01*
X233149Y202801D01*
X232351Y203261D01*
X231461Y203500D01*
D02*
G37*
G36*
X212500Y198750D02*
X209250D01*
Y195500D01*
X209461D01*
X210351Y195738D01*
X211149Y196199D01*
X211801Y196851D01*
X212262Y197649D01*
X212500Y198539D01*
Y198750D01*
D02*
G37*
G36*
X208750D02*
X205500D01*
Y198539D01*
X205738Y197649D01*
X206199Y196851D01*
X206851Y196199D01*
X207649Y195738D01*
X208539Y195500D01*
X208750D01*
Y198750D01*
D02*
G37*
G36*
X199461Y202500D02*
X198539D01*
X197649Y202261D01*
X196851Y201801D01*
X196199Y201149D01*
X195738Y200351D01*
X195500Y199461D01*
Y198539D01*
X195738Y197649D01*
X196199Y196851D01*
X196851Y196199D01*
X197649Y195738D01*
X198539Y195500D01*
X199461D01*
X200351Y195738D01*
X201149Y196199D01*
X201801Y196851D01*
X202261Y197649D01*
X202500Y198539D01*
Y199461D01*
X202261Y200351D01*
X201801Y201149D01*
X201149Y201801D01*
X200351Y202261D01*
X199461Y202500D01*
D02*
G37*
G36*
X311461Y179000D02*
X311250D01*
Y175750D01*
X314500D01*
Y175961D01*
X314262Y176851D01*
X313801Y177649D01*
X313149Y178301D01*
X312351Y178761D01*
X311461Y179000D01*
D02*
G37*
G36*
X310750D02*
X310539D01*
X309649Y178761D01*
X308851Y178301D01*
X308199Y177649D01*
X307738Y176851D01*
X307500Y175961D01*
Y175750D01*
X310750D01*
Y179000D01*
D02*
G37*
G36*
X361961Y178000D02*
X361750D01*
Y174750D01*
X365000D01*
Y174961D01*
X364761Y175851D01*
X364301Y176649D01*
X363649Y177301D01*
X362851Y177761D01*
X361961Y178000D01*
D02*
G37*
G36*
X361250D02*
X361039D01*
X360149Y177761D01*
X359351Y177301D01*
X358699Y176649D01*
X358239Y175851D01*
X358000Y174961D01*
Y174750D01*
X361250D01*
Y178000D01*
D02*
G37*
G36*
X314500Y175250D02*
X311250D01*
Y172000D01*
X311461D01*
X312351Y172239D01*
X313149Y172699D01*
X313801Y173351D01*
X314262Y174149D01*
X314500Y175039D01*
Y175250D01*
D02*
G37*
G36*
X310750D02*
X307500D01*
Y175039D01*
X307738Y174149D01*
X308199Y173351D01*
X308851Y172699D01*
X309649Y172239D01*
X310539Y172000D01*
X310750D01*
Y175250D01*
D02*
G37*
G36*
X301461Y179000D02*
X300539D01*
X299649Y178761D01*
X298851Y178301D01*
X298199Y177649D01*
X297739Y176851D01*
X297500Y175961D01*
Y175039D01*
X297739Y174149D01*
X298199Y173351D01*
X298851Y172699D01*
X299649Y172239D01*
X300539Y172000D01*
X301461D01*
X302351Y172239D01*
X303149Y172699D01*
X303801Y173351D01*
X304261Y174149D01*
X304500Y175039D01*
Y175961D01*
X304261Y176851D01*
X303801Y177649D01*
X303149Y178301D01*
X302351Y178761D01*
X301461Y179000D01*
D02*
G37*
G36*
X291461D02*
X290539D01*
X289649Y178761D01*
X288851Y178301D01*
X288199Y177649D01*
X287738Y176851D01*
X287500Y175961D01*
Y175039D01*
X287738Y174149D01*
X288199Y173351D01*
X288851Y172699D01*
X289649Y172239D01*
X290539Y172000D01*
X291461D01*
X292351Y172239D01*
X293149Y172699D01*
X293801Y173351D01*
X294262Y174149D01*
X294500Y175039D01*
Y175961D01*
X294262Y176851D01*
X293801Y177649D01*
X293149Y178301D01*
X292351Y178761D01*
X291461Y179000D01*
D02*
G37*
G36*
X365000Y174250D02*
X361750D01*
Y171000D01*
X361961D01*
X362851Y171239D01*
X363649Y171699D01*
X364301Y172351D01*
X364761Y173149D01*
X365000Y174039D01*
Y174250D01*
D02*
G37*
G36*
X361250D02*
X358000D01*
Y174039D01*
X358239Y173149D01*
X358699Y172351D01*
X359351Y171699D01*
X360149Y171239D01*
X361039Y171000D01*
X361250D01*
Y174250D01*
D02*
G37*
G36*
X351961Y178000D02*
X351039D01*
X350149Y177761D01*
X349351Y177301D01*
X348699Y176649D01*
X348238Y175851D01*
X348000Y174961D01*
Y174039D01*
X348238Y173149D01*
X348699Y172351D01*
X349351Y171699D01*
X350149Y171239D01*
X351039Y171000D01*
X351961D01*
X352851Y171239D01*
X353649Y171699D01*
X354301Y172351D01*
X354762Y173149D01*
X355000Y174039D01*
Y174961D01*
X354762Y175851D01*
X354301Y176649D01*
X353649Y177301D01*
X352851Y177761D01*
X351961Y178000D01*
D02*
G37*
G36*
X341961D02*
X341039D01*
X340149Y177761D01*
X339351Y177301D01*
X338699Y176649D01*
X338239Y175851D01*
X338000Y174961D01*
Y174039D01*
X338239Y173149D01*
X338699Y172351D01*
X339351Y171699D01*
X340149Y171239D01*
X341039Y171000D01*
X341961D01*
X342851Y171239D01*
X343649Y171699D01*
X344301Y172351D01*
X344761Y173149D01*
X345000Y174039D01*
Y174961D01*
X344761Y175851D01*
X344301Y176649D01*
X343649Y177301D01*
X342851Y177761D01*
X341961Y178000D01*
D02*
G37*
%LPD*%
D17*
X409000Y441000D02*
D03*
X419000D02*
D03*
X429000D02*
D03*
X439000D02*
D03*
X449000D02*
D03*
X459000D02*
D03*
X491000Y415000D02*
D03*
Y405000D02*
D03*
Y395000D02*
D03*
Y385000D02*
D03*
X231000Y200000D02*
D03*
X241000D02*
D03*
X392500Y407500D02*
D03*
Y397500D02*
D03*
Y387500D02*
D03*
Y377500D02*
D03*
Y367500D02*
D03*
Y357500D02*
D03*
Y347500D02*
D03*
Y337500D02*
D03*
Y327500D02*
D03*
Y317500D02*
D03*
Y307500D02*
D03*
Y297500D02*
D03*
Y287500D02*
D03*
Y277500D02*
D03*
Y267500D02*
D03*
Y257500D02*
D03*
Y247500D02*
D03*
Y237500D02*
D03*
Y227500D02*
D03*
X302500D02*
D03*
Y237500D02*
D03*
Y247500D02*
D03*
Y257500D02*
D03*
Y267500D02*
D03*
Y277500D02*
D03*
Y287500D02*
D03*
Y297500D02*
D03*
Y307500D02*
D03*
Y317500D02*
D03*
Y327500D02*
D03*
Y337500D02*
D03*
Y347500D02*
D03*
Y357500D02*
D03*
Y367500D02*
D03*
Y377500D02*
D03*
Y387500D02*
D03*
Y397500D02*
D03*
Y407500D02*
D03*
X165500Y439000D02*
D03*
Y429000D02*
D03*
Y419000D02*
D03*
Y409000D02*
D03*
Y399000D02*
D03*
Y389000D02*
D03*
Y379000D02*
D03*
Y369000D02*
D03*
Y359000D02*
D03*
Y349000D02*
D03*
Y339000D02*
D03*
Y329000D02*
D03*
Y319000D02*
D03*
X453000Y275000D02*
D03*
Y285000D02*
D03*
Y295000D02*
D03*
Y305000D02*
D03*
Y315000D02*
D03*
Y325000D02*
D03*
Y335000D02*
D03*
X164500Y279500D02*
D03*
Y269500D02*
D03*
Y259500D02*
D03*
Y249500D02*
D03*
Y239500D02*
D03*
Y229500D02*
D03*
Y219500D02*
D03*
Y209500D02*
D03*
X351500Y174500D02*
D03*
X341500D02*
D03*
X361500D02*
D03*
X311000Y175500D02*
D03*
X209000Y199000D02*
D03*
X199000D02*
D03*
X301000Y175500D02*
D03*
X291000D02*
D03*
M02*
