M48
;Layer_Color=9474304
;FILE_FORMAT=2:5
INCH
;TYPE=PLATED
T01F00S00C0.03000
%
T01
X0341500Y0174500
X0351500
X0361500
X0392500Y0227500
Y0237500
Y0247500
Y0257500
Y0267500
Y0277500
Y0287500
Y0297500
Y0307500
X0453000Y0305000
Y0295000
Y0285000
Y0275000
X0302500Y0277500
Y0267500
Y0257500
Y0247500
Y0237500
Y0227500
X0301000Y0175500
X0311000
X0291000
X0241000Y0200000
X0231000
X0209000Y0199000
X0199000
X0164500Y0209500
Y0219500
Y0229500
Y0239500
Y0249500
Y0259500
Y0269500
Y0279500
X0302500Y0287500
Y0297500
Y0307500
Y0317500
Y0327500
Y0337500
Y0347500
Y0357500
Y0367500
Y0377500
Y0387500
Y0397500
Y0407500
X0165500Y0409000
Y0419000
Y0429000
Y0439000
Y0399000
Y0389000
Y0379000
Y0369000
Y0359000
Y0349000
Y0339000
Y0329000
Y0319000
X0392500Y0317500
Y0327500
Y0337500
Y0347500
Y0357500
Y0367500
Y0377500
Y0387500
Y0397500
Y0407500
X0409000Y0441000
X0419000
X0429000
X0439000
X0449000
X0459000
X0453000Y0335000
Y0325000
Y0315000
X0491000Y0385000
Y0395000
Y0405000
Y0415000
M30
