G04*
G04 #@! TF.GenerationSoftware,Altium Limited,Altium Designer Develop,26.4.1 (13)*
G04*
G04 Layer_Color=65535*
%FSLAX25Y25*%
%MOIN*%
G70*
G04*
G04 #@! TF.SameCoordinates,29AABDA0-5697-452D-8F28-FD8EF657E8B7*
G04*
G04*
G04 #@! TF.FilePolarity,Positive*
G04*
G01*
G75*
%ADD10C,0.00591*%
%ADD11C,0.01000*%
D10*
X315713Y198500D02*
X317287D01*
X363713Y198772D02*
X365287D01*
X290713Y198728D02*
X292287D01*
X340213Y198500D02*
X341787D01*
D11*
X290600Y205200D02*
Y211198D01*
X293599D01*
X294599Y210198D01*
Y208199D01*
X293599Y207199D01*
X290600D01*
X292599D02*
X294599Y205200D01*
X299597D02*
Y211198D01*
X296598Y208199D01*
X300597D01*
X340100Y204900D02*
Y210898D01*
X343099D01*
X344099Y209898D01*
Y207899D01*
X343099Y206899D01*
X340100D01*
X342099D02*
X344099Y204900D01*
X346098Y209898D02*
X347098Y210898D01*
X349097D01*
X350097Y209898D01*
Y208899D01*
X349097Y207899D01*
X348097D01*
X349097D01*
X350097Y206899D01*
Y205900D01*
X349097Y204900D01*
X347098D01*
X346098Y205900D01*
X315600Y204900D02*
Y210898D01*
X318599D01*
X319599Y209898D01*
Y207899D01*
X318599Y206899D01*
X315600D01*
X317599D02*
X319599Y204900D01*
X325597D02*
X321598D01*
X325597Y208899D01*
Y209898D01*
X324597Y210898D01*
X322598D01*
X321598Y209898D01*
X363600Y205200D02*
Y211198D01*
X366599D01*
X367599Y210198D01*
Y208199D01*
X366599Y207199D01*
X363600D01*
X365599D02*
X367599Y205200D01*
X369598D02*
X371597D01*
X370598D01*
Y211198D01*
X369598Y210198D01*
X339200Y180800D02*
X341199D01*
X340200D01*
Y186798D01*
X339200Y185798D01*
X344198D02*
X345198Y186798D01*
X347197D01*
X348197Y185798D01*
Y181800D01*
X347197Y180800D01*
X345198D01*
X344198Y181800D01*
Y185798D01*
X280700Y172800D02*
X281700Y171800D01*
X283699D01*
X284699Y172800D01*
Y176798D01*
X283699Y177798D01*
X281700D01*
X280700Y176798D01*
Y175799D01*
X281700Y174799D01*
X284699D01*
X154200Y280798D02*
X155200Y281798D01*
X157199D01*
X158199Y280798D01*
Y279799D01*
X157199Y278799D01*
X158199Y277799D01*
Y276800D01*
X157199Y275800D01*
X155200D01*
X154200Y276800D01*
Y277799D01*
X155200Y278799D01*
X154200Y279799D01*
Y280798D01*
X155200Y278799D02*
X157199D01*
X443000Y336998D02*
X446999D01*
Y335998D01*
X443000Y332000D01*
Y331000D01*
X159499Y440998D02*
X157499Y439998D01*
X155500Y437999D01*
Y436000D01*
X156500Y435000D01*
X158499D01*
X159499Y436000D01*
Y436999D01*
X158499Y437999D01*
X155500D01*
X296499Y409498D02*
X292500D01*
Y406499D01*
X294499Y407499D01*
X295499D01*
X296499Y406499D01*
Y404500D01*
X295499Y403500D01*
X293500D01*
X292500Y404500D01*
X223699Y196300D02*
Y202298D01*
X220700Y199299D01*
X224699D01*
X188700Y200298D02*
X189700Y201298D01*
X191699D01*
X192699Y200298D01*
Y199299D01*
X191699Y198299D01*
X190699D01*
X191699D01*
X192699Y197299D01*
Y196300D01*
X191699Y195300D01*
X189700D01*
X188700Y196300D01*
X484699Y411300D02*
X480700D01*
X484699Y415299D01*
Y416298D01*
X483699Y417298D01*
X481700D01*
X480700Y416298D01*
X400700Y437300D02*
X402699D01*
X401700D01*
Y443298D01*
X400700Y442298D01*
M02*
