G04*
G04 #@! TF.GenerationSoftware,Altium Limited,Altium Designer Develop,26.4.1 (13)*
G04*
G04 Layer_Physical_Order=1*
G04 Layer_Color=255*
%FSLAX25Y25*%
%MOIN*%
G70*
G04*
G04 #@! TF.SameCoordinates,29AABDA0-5697-452D-8F28-FD8EF657E8B7*
G04*
G04*
G04 #@! TF.FilePolarity,Positive*
G04*
G01*
G75*
%ADD11C,0.01000*%
G04:AMPARAMS|DCode=12|XSize=21.65mil|YSize=19.68mil|CornerRadius=2.46mil|HoleSize=0mil|Usage=FLASHONLY|Rotation=0.000|XOffset=0mil|YOffset=0mil|HoleType=Round|Shape=RoundedRectangle|*
%AMROUNDEDRECTD12*
21,1,0.02165,0.01476,0,0,0.0*
21,1,0.01673,0.01968,0,0,0.0*
1,1,0.00492,0.00837,-0.00738*
1,1,0.00492,-0.00837,-0.00738*
1,1,0.00492,-0.00837,0.00738*
1,1,0.00492,0.00837,0.00738*
%
%ADD12ROUNDEDRECTD12*%
%ADD15C,0.00500*%
%ADD16C,0.02000*%
%ADD17C,0.06000*%
G36*
X508500Y158000D02*
X504000Y153500D01*
X331997D01*
Y159998D01*
X319000D01*
Y153500D01*
X144855D01*
X144502Y153855D01*
X146500Y455500D01*
X147000Y456000D01*
X392500D01*
Y447500D01*
X428489D01*
Y456000D01*
X508500D01*
Y158000D01*
D02*
G37*
%LPC*%
G36*
X409461Y444500D02*
X409250D01*
Y441250D01*
X412500D01*
Y441461D01*
X412261Y442351D01*
X411801Y443149D01*
X411149Y443801D01*
X410351Y444262D01*
X409461Y444500D01*
D02*
G37*
G36*
X408750D02*
X408539D01*
X407649Y444262D01*
X406851Y443801D01*
X406199Y443149D01*
X405738Y442351D01*
X405500Y441461D01*
Y441250D01*
X408750D01*
Y444500D01*
D02*
G37*
G36*
X459461D02*
X458539D01*
X457649Y444262D01*
X456851Y443801D01*
X456199Y443149D01*
X455738Y442351D01*
X455500Y441461D01*
Y440539D01*
X455738Y439649D01*
X456199Y438851D01*
X456851Y438199D01*
X457649Y437739D01*
X458539Y437500D01*
X459461D01*
X460351Y437739D01*
X461149Y438199D01*
X461801Y438851D01*
X462261Y439649D01*
X462500Y440539D01*
Y441461D01*
X462261Y442351D01*
X461801Y443149D01*
X461149Y443801D01*
X460351Y444262D01*
X459461Y444500D01*
D02*
G37*
G36*
X449461D02*
X448539D01*
X447649Y444262D01*
X446851Y443801D01*
X446199Y443149D01*
X445739Y442351D01*
X445500Y441461D01*
Y440539D01*
X445739Y439649D01*
X446199Y438851D01*
X446851Y438199D01*
X447649Y437739D01*
X448539Y437500D01*
X449461D01*
X450351Y437739D01*
X451149Y438199D01*
X451801Y438851D01*
X452261Y439649D01*
X452500Y440539D01*
Y441461D01*
X452261Y442351D01*
X451801Y443149D01*
X451149Y443801D01*
X450351Y444262D01*
X449461Y444500D01*
D02*
G37*
G36*
X419461D02*
X418539D01*
X417649Y444262D01*
X416851Y443801D01*
X416199Y443149D01*
X415738Y442351D01*
X415500Y441461D01*
Y440539D01*
X415738Y439649D01*
X416199Y438851D01*
X416851Y438199D01*
X417649Y437739D01*
X418539Y437500D01*
X419461D01*
X420351Y437739D01*
X421149Y438199D01*
X421801Y438851D01*
X422261Y439649D01*
X422500Y440539D01*
Y441461D01*
X422261Y442351D01*
X421801Y443149D01*
X421149Y443801D01*
X420351Y444262D01*
X419461Y444500D01*
D02*
G37*
G36*
X412500Y440750D02*
X409250D01*
Y437500D01*
X409461D01*
X410351Y437739D01*
X411149Y438199D01*
X411801Y438851D01*
X412261Y439649D01*
X412500Y440539D01*
Y440750D01*
D02*
G37*
G36*
X408750D02*
X405500D01*
Y440539D01*
X405738Y439649D01*
X406199Y438851D01*
X406851Y438199D01*
X407649Y437739D01*
X408539Y437500D01*
X408750D01*
Y440750D01*
D02*
G37*
G36*
X493493Y431998D02*
X468500D01*
Y423000D01*
X493493D01*
Y431998D01*
D02*
G37*
G36*
X491461Y418500D02*
X490539D01*
X489649Y418261D01*
X488851Y417801D01*
X488199Y417149D01*
X487739Y416351D01*
X487500Y415461D01*
Y414539D01*
X487739Y413649D01*
X488199Y412851D01*
X488851Y412199D01*
X489649Y411738D01*
X490539Y411500D01*
X491461D01*
X492351Y411738D01*
X493149Y412199D01*
X493801Y412851D01*
X494262Y413649D01*
X494500Y414539D01*
Y415461D01*
X494262Y416351D01*
X493801Y417149D01*
X493149Y417801D01*
X492351Y418261D01*
X491461Y418500D01*
D02*
G37*
G36*
X302961Y411000D02*
X302750D01*
Y407750D01*
X306000D01*
Y407961D01*
X305762Y408851D01*
X305301Y409649D01*
X304649Y410301D01*
X303851Y410761D01*
X302961Y411000D01*
D02*
G37*
G36*
X302250D02*
X302039D01*
X301149Y410761D01*
X300351Y410301D01*
X299699Y409649D01*
X299238Y408851D01*
X299000Y407961D01*
Y407750D01*
X302250D01*
Y411000D01*
D02*
G37*
G36*
X491461Y408500D02*
X491250D01*
Y405250D01*
X494500D01*
Y405461D01*
X494262Y406351D01*
X493801Y407149D01*
X493149Y407801D01*
X492351Y408261D01*
X491461Y408500D01*
D02*
G37*
G36*
X490750D02*
X490539D01*
X489649Y408261D01*
X488851Y407801D01*
X488199Y407149D01*
X487739Y406351D01*
X487500Y405461D01*
Y405250D01*
X490750D01*
Y408500D01*
D02*
G37*
G36*
X392961Y411000D02*
X392039D01*
X391149Y410761D01*
X390351Y410301D01*
X389699Y409649D01*
X389239Y408851D01*
X389000Y407961D01*
Y407039D01*
X389239Y406149D01*
X389699Y405351D01*
X390351Y404699D01*
X391149Y404239D01*
X392039Y404000D01*
X392961D01*
X393851Y404239D01*
X394649Y404699D01*
X395301Y405351D01*
X395761Y406149D01*
X396000Y407039D01*
Y407961D01*
X395761Y408851D01*
X395301Y409649D01*
X394649Y410301D01*
X393851Y410761D01*
X392961Y411000D01*
D02*
G37*
G36*
X306000Y407250D02*
X302750D01*
Y404000D01*
X302961D01*
X303851Y404239D01*
X304649Y404699D01*
X305301Y405351D01*
X305762Y406149D01*
X306000Y407039D01*
Y407250D01*
D02*
G37*
G36*
X302250D02*
X299000D01*
Y407039D01*
X299238Y406149D01*
X299699Y405351D01*
X300351Y404699D01*
X301149Y404239D01*
X302039Y404000D01*
X302250D01*
Y407250D01*
D02*
G37*
G36*
X404000Y435541D02*
X404000Y435541D01*
X271500D01*
X271117Y435383D01*
X271117Y435383D01*
X262117Y426383D01*
X261959Y426000D01*
X261959Y426000D01*
Y395000D01*
X262117Y394617D01*
X262500Y394459D01*
X291000D01*
X291000Y394459D01*
X291383Y394617D01*
X291383Y394617D01*
X291883Y395117D01*
X292041Y395500D01*
X292041Y395500D01*
Y412776D01*
X294724Y415459D01*
X306276D01*
X309959Y411776D01*
Y388000D01*
Y387500D01*
X310117Y387117D01*
X310500Y386959D01*
X384500D01*
X384883Y387117D01*
X385041Y387500D01*
Y415000D01*
X385392Y415459D01*
X400459D01*
Y405000D01*
X400459Y405000D01*
X400617Y404617D01*
X400617Y404617D01*
X401117Y404117D01*
X401421Y403992D01*
X401500Y403959D01*
X401883Y404117D01*
X401883Y404117D01*
X408383Y410617D01*
X408541Y411000D01*
X408541Y411000D01*
Y431000D01*
X408383Y431383D01*
X408383Y431383D01*
X404383Y435383D01*
X404000Y435541D01*
D02*
G37*
G36*
X494500Y404750D02*
X491250D01*
Y401500D01*
X491461D01*
X492351Y401739D01*
X493149Y402199D01*
X493801Y402851D01*
X494262Y403649D01*
X494500Y404539D01*
Y404750D01*
D02*
G37*
G36*
X490750D02*
X487500D01*
Y404539D01*
X487739Y403649D01*
X488199Y402851D01*
X488851Y402199D01*
X489649Y401739D01*
X490539Y401500D01*
X490750D01*
Y404750D01*
D02*
G37*
G36*
X392961Y401000D02*
X392039D01*
X391149Y400762D01*
X390351Y400301D01*
X389699Y399649D01*
X389239Y398851D01*
X389000Y397961D01*
Y397039D01*
X389239Y396149D01*
X389699Y395351D01*
X390351Y394699D01*
X391149Y394238D01*
X392039Y394000D01*
X392961D01*
X393851Y394238D01*
X394649Y394699D01*
X395301Y395351D01*
X395761Y396149D01*
X396000Y397039D01*
Y397961D01*
X395761Y398851D01*
X395301Y399649D01*
X394649Y400301D01*
X393851Y400762D01*
X392961Y401000D01*
D02*
G37*
G36*
X302961D02*
X302039D01*
X301149Y400762D01*
X300351Y400301D01*
X299699Y399649D01*
X299238Y398851D01*
X299000Y397961D01*
Y397039D01*
X299238Y396149D01*
X299699Y395351D01*
X300351Y394699D01*
X301149Y394238D01*
X302039Y394000D01*
X302961D01*
X303851Y394238D01*
X304649Y394699D01*
X305301Y395351D01*
X305762Y396149D01*
X306000Y397039D01*
Y397961D01*
X305762Y398851D01*
X305301Y399649D01*
X304649Y400301D01*
X303851Y400762D01*
X302961Y401000D01*
D02*
G37*
G36*
X429461Y444500D02*
X428539D01*
X427649Y444262D01*
X426851Y443801D01*
X426199Y443149D01*
X425738Y442351D01*
X425500Y441461D01*
Y440539D01*
X425738Y439649D01*
X426199Y438851D01*
X426851Y438199D01*
X427649Y437739D01*
X428235Y437581D01*
Y424317D01*
X399459Y395541D01*
X394377Y390458D01*
X393851Y390761D01*
X392961Y391000D01*
X392039D01*
X391149Y390761D01*
X390351Y390301D01*
X389699Y389649D01*
X389239Y388851D01*
X389000Y387961D01*
Y387039D01*
X389239Y386149D01*
X389699Y385351D01*
X390351Y384699D01*
X391149Y384239D01*
X392039Y384000D01*
X392961D01*
X393851Y384239D01*
X394649Y384699D01*
X395301Y385351D01*
X395761Y386149D01*
X396000Y387039D01*
Y387961D01*
X395761Y388851D01*
X395458Y389377D01*
X400317Y394235D01*
X487581D01*
X487739Y393649D01*
X488199Y392851D01*
X488851Y392199D01*
X489649Y391739D01*
X490539Y391500D01*
X491461D01*
X492351Y391739D01*
X493149Y392199D01*
X493801Y392851D01*
X494262Y393649D01*
X494500Y394539D01*
Y395461D01*
X494262Y396351D01*
X493801Y397149D01*
X493149Y397801D01*
X492351Y398261D01*
X491461Y398500D01*
X490539D01*
X489649Y398261D01*
X488851Y397801D01*
X488199Y397149D01*
X487739Y396351D01*
X487581Y395765D01*
X402499D01*
X402308Y396227D01*
X429541Y423459D01*
X429706Y423707D01*
X429765Y424000D01*
Y437581D01*
X430351Y437739D01*
X431149Y438199D01*
X431801Y438851D01*
X432262Y439649D01*
X432500Y440539D01*
Y441461D01*
X432262Y442351D01*
X431801Y443149D01*
X431149Y443801D01*
X430351Y444262D01*
X429461Y444500D01*
D02*
G37*
G36*
X494500Y448765D02*
X446000D01*
X445707Y448706D01*
X445459Y448541D01*
X445459Y448541D01*
X440877Y443958D01*
X440351Y444262D01*
X439461Y444500D01*
X438539D01*
X437649Y444262D01*
X436851Y443801D01*
X436199Y443149D01*
X435739Y442351D01*
X435500Y441461D01*
Y440539D01*
X435739Y439649D01*
X436199Y438851D01*
X436851Y438199D01*
X437649Y437739D01*
X438539Y437500D01*
X439461D01*
X440351Y437739D01*
X441149Y438199D01*
X441801Y438851D01*
X442262Y439649D01*
X442500Y440539D01*
Y441461D01*
X442262Y442351D01*
X441958Y442877D01*
X446317Y447235D01*
X494183D01*
X505735Y435683D01*
Y400817D01*
X492877Y387958D01*
X492351Y388262D01*
X491461Y388500D01*
X490539D01*
X489649Y388262D01*
X488851Y387801D01*
X488199Y387149D01*
X487739Y386351D01*
X487581Y385765D01*
X420000D01*
X419707Y385706D01*
X419459Y385541D01*
X394377Y360458D01*
X393851Y360761D01*
X392961Y361000D01*
X392039D01*
X391149Y360761D01*
X390351Y360301D01*
X389699Y359649D01*
X389239Y358851D01*
X389000Y357961D01*
Y357039D01*
X389239Y356149D01*
X389699Y355351D01*
X390351Y354699D01*
X391149Y354239D01*
X392039Y354000D01*
X392961D01*
X393851Y354239D01*
X394649Y354699D01*
X395301Y355351D01*
X395761Y356149D01*
X396000Y357039D01*
Y357961D01*
X395761Y358851D01*
X395458Y359377D01*
X420317Y384235D01*
X487581D01*
X487739Y383649D01*
X488199Y382851D01*
X488851Y382199D01*
X489649Y381738D01*
X490539Y381500D01*
X491461D01*
X492351Y381738D01*
X493149Y382199D01*
X493801Y382851D01*
X494262Y383649D01*
X494500Y384539D01*
Y385461D01*
X494262Y386351D01*
X493958Y386877D01*
X507041Y399959D01*
X507206Y400207D01*
X507265Y400500D01*
Y436000D01*
X507206Y436293D01*
X507041Y436541D01*
X495041Y448541D01*
X494793Y448706D01*
X494500Y448765D01*
D02*
G37*
G36*
X165961Y442500D02*
X165039D01*
X164149Y442262D01*
X163351Y441801D01*
X162699Y441149D01*
X162239Y440351D01*
X162000Y439461D01*
Y438539D01*
X162239Y437649D01*
X162699Y436851D01*
X163351Y436199D01*
X164149Y435739D01*
X165039Y435500D01*
X165961D01*
X166851Y435739D01*
X167649Y436199D01*
X168301Y436851D01*
X168762Y437649D01*
X168919Y438235D01*
X195183D01*
X246459Y386959D01*
X246707Y386793D01*
X247000Y386735D01*
X299081D01*
X299238Y386149D01*
X299699Y385351D01*
X300351Y384699D01*
X301149Y384239D01*
X302039Y384000D01*
X302961D01*
X303851Y384239D01*
X304649Y384699D01*
X305301Y385351D01*
X305762Y386149D01*
X306000Y387039D01*
Y387961D01*
X305762Y388851D01*
X305301Y389649D01*
X304649Y390301D01*
X303851Y390761D01*
X302961Y391000D01*
X302039D01*
X301149Y390761D01*
X300351Y390301D01*
X299699Y389649D01*
X299238Y388851D01*
X299081Y388265D01*
X247317D01*
X196041Y439541D01*
X195793Y439707D01*
X195500Y439765D01*
X168919D01*
X168762Y440351D01*
X168301Y441149D01*
X167649Y441801D01*
X166851Y442262D01*
X165961Y442500D01*
D02*
G37*
G36*
X392961Y381000D02*
X392039D01*
X391149Y380762D01*
X390351Y380301D01*
X389699Y379649D01*
X389239Y378851D01*
X389000Y377961D01*
Y377039D01*
X389239Y376149D01*
X389699Y375351D01*
X390351Y374699D01*
X391149Y374238D01*
X392039Y374000D01*
X392961D01*
X393851Y374238D01*
X394649Y374699D01*
X395301Y375351D01*
X395761Y376149D01*
X396000Y377039D01*
Y377961D01*
X395761Y378851D01*
X395301Y379649D01*
X394649Y380301D01*
X393851Y380762D01*
X392961Y381000D01*
D02*
G37*
G36*
X165961Y432500D02*
X165039D01*
X164149Y432262D01*
X163351Y431801D01*
X162699Y431149D01*
X162239Y430351D01*
X162000Y429461D01*
Y428539D01*
X162239Y427649D01*
X162699Y426851D01*
X163351Y426199D01*
X164149Y425738D01*
X165039Y425500D01*
X165961D01*
X166851Y425738D01*
X167649Y426199D01*
X168301Y426851D01*
X168762Y427649D01*
X168919Y428235D01*
X187183D01*
X238459Y376959D01*
X238707Y376794D01*
X239000Y376735D01*
X299081D01*
X299238Y376149D01*
X299699Y375351D01*
X300351Y374699D01*
X301149Y374238D01*
X302039Y374000D01*
X302961D01*
X303851Y374238D01*
X304649Y374699D01*
X305301Y375351D01*
X305762Y376149D01*
X306000Y377039D01*
Y377961D01*
X305762Y378851D01*
X305301Y379649D01*
X304649Y380301D01*
X303851Y380762D01*
X302961Y381000D01*
X302039D01*
X301149Y380762D01*
X300351Y380301D01*
X299699Y379649D01*
X299238Y378851D01*
X299081Y378265D01*
X239317D01*
X188041Y429541D01*
X187793Y429706D01*
X187500Y429765D01*
X168919D01*
X168762Y430351D01*
X168301Y431149D01*
X167649Y431801D01*
X166851Y432262D01*
X165961Y432500D01*
D02*
G37*
G36*
X392961Y371000D02*
X392039D01*
X391149Y370761D01*
X390351Y370301D01*
X389699Y369649D01*
X389239Y368851D01*
X389000Y367961D01*
Y367039D01*
X389239Y366149D01*
X389699Y365351D01*
X390351Y364699D01*
X391149Y364239D01*
X392039Y364000D01*
X392961D01*
X393851Y364239D01*
X394649Y364699D01*
X395301Y365351D01*
X395761Y366149D01*
X396000Y367039D01*
Y367961D01*
X395761Y368851D01*
X395301Y369649D01*
X394649Y370301D01*
X393851Y370761D01*
X392961Y371000D01*
D02*
G37*
G36*
X165961Y422500D02*
X165039D01*
X164149Y422261D01*
X163351Y421801D01*
X162699Y421149D01*
X162239Y420351D01*
X162000Y419461D01*
Y418539D01*
X162239Y417649D01*
X162699Y416851D01*
X163351Y416199D01*
X164149Y415738D01*
X165039Y415500D01*
X165961D01*
X166851Y415738D01*
X167649Y416199D01*
X168301Y416851D01*
X168762Y417649D01*
X168919Y418235D01*
X173769D01*
X225045Y366959D01*
X225293Y366793D01*
X225586Y366735D01*
X299081D01*
X299238Y366149D01*
X299699Y365351D01*
X300351Y364699D01*
X301149Y364239D01*
X302039Y364000D01*
X302961D01*
X303851Y364239D01*
X304649Y364699D01*
X305301Y365351D01*
X305762Y366149D01*
X306000Y367039D01*
Y367961D01*
X305762Y368851D01*
X305301Y369649D01*
X304649Y370301D01*
X303851Y370761D01*
X302961Y371000D01*
X302039D01*
X301149Y370761D01*
X300351Y370301D01*
X299699Y369649D01*
X299238Y368851D01*
X299081Y368265D01*
X225903D01*
X174627Y419541D01*
X174378Y419706D01*
X174086Y419765D01*
X168919D01*
X168762Y420351D01*
X168301Y421149D01*
X167649Y421801D01*
X166851Y422261D01*
X165961Y422500D01*
D02*
G37*
G36*
Y412500D02*
X165039D01*
X164149Y412261D01*
X163351Y411801D01*
X162699Y411149D01*
X162239Y410351D01*
X162000Y409461D01*
Y408539D01*
X162239Y407649D01*
X162699Y406851D01*
X163351Y406199D01*
X164149Y405738D01*
X165039Y405500D01*
X165961D01*
X166851Y405738D01*
X167377Y406042D01*
X216459Y356959D01*
X216707Y356793D01*
X217000Y356735D01*
X299081D01*
X299238Y356149D01*
X299699Y355351D01*
X300351Y354699D01*
X301149Y354239D01*
X302039Y354000D01*
X302961D01*
X303851Y354239D01*
X304649Y354699D01*
X305301Y355351D01*
X305762Y356149D01*
X306000Y357039D01*
Y357961D01*
X305762Y358851D01*
X305301Y359649D01*
X304649Y360301D01*
X303851Y360761D01*
X302961Y361000D01*
X302039D01*
X301149Y360761D01*
X300351Y360301D01*
X299699Y359649D01*
X299238Y358851D01*
X299081Y358265D01*
X217317D01*
X168458Y407123D01*
X168762Y407649D01*
X169000Y408539D01*
Y409461D01*
X168762Y410351D01*
X168301Y411149D01*
X167649Y411801D01*
X166851Y412261D01*
X165961Y412500D01*
D02*
G37*
G36*
X392961Y351000D02*
X392039D01*
X391149Y350762D01*
X390351Y350301D01*
X389699Y349649D01*
X389239Y348851D01*
X389000Y347961D01*
Y347039D01*
X389239Y346149D01*
X389699Y345351D01*
X390351Y344699D01*
X391149Y344238D01*
X392039Y344000D01*
X392961D01*
X393851Y344238D01*
X394649Y344699D01*
X395301Y345351D01*
X395761Y346149D01*
X396000Y347039D01*
Y347961D01*
X395761Y348851D01*
X395301Y349649D01*
X394649Y350301D01*
X393851Y350762D01*
X392961Y351000D01*
D02*
G37*
G36*
X165961Y402500D02*
X165039D01*
X164149Y402261D01*
X163351Y401801D01*
X162699Y401149D01*
X162239Y400351D01*
X162000Y399461D01*
Y398539D01*
X162239Y397649D01*
X162699Y396851D01*
X163351Y396199D01*
X164149Y395739D01*
X165039Y395500D01*
X165961D01*
X166851Y395739D01*
X167377Y396042D01*
X216459Y346959D01*
X216707Y346794D01*
X217000Y346735D01*
X299081D01*
X299238Y346149D01*
X299699Y345351D01*
X300351Y344699D01*
X301149Y344238D01*
X302039Y344000D01*
X302961D01*
X303851Y344238D01*
X304649Y344699D01*
X305301Y345351D01*
X305762Y346149D01*
X306000Y347039D01*
Y347961D01*
X305762Y348851D01*
X305301Y349649D01*
X304649Y350301D01*
X303851Y350762D01*
X302961Y351000D01*
X302039D01*
X301149Y350762D01*
X300351Y350301D01*
X299699Y349649D01*
X299238Y348851D01*
X299081Y348265D01*
X217317D01*
X168458Y397123D01*
X168762Y397649D01*
X169000Y398539D01*
Y399461D01*
X168762Y400351D01*
X168301Y401149D01*
X167649Y401801D01*
X166851Y402261D01*
X165961Y402500D01*
D02*
G37*
G36*
Y392500D02*
X165039D01*
X164149Y392262D01*
X163351Y391801D01*
X162699Y391149D01*
X162239Y390351D01*
X162000Y389461D01*
Y388539D01*
X162239Y387649D01*
X162699Y386851D01*
X163351Y386199D01*
X164149Y385738D01*
X165039Y385500D01*
X165961D01*
X166851Y385738D01*
X167377Y386042D01*
X216459Y336959D01*
X216707Y336793D01*
X217000Y336735D01*
X299081D01*
X299238Y336149D01*
X299699Y335351D01*
X300351Y334699D01*
X301149Y334239D01*
X302039Y334000D01*
X302961D01*
X303851Y334239D01*
X304649Y334699D01*
X305301Y335351D01*
X305762Y336149D01*
X306000Y337039D01*
Y337961D01*
X305762Y338851D01*
X305301Y339649D01*
X304649Y340301D01*
X303851Y340761D01*
X302961Y341000D01*
X302039D01*
X301149Y340761D01*
X300351Y340301D01*
X299699Y339649D01*
X299238Y338851D01*
X299081Y338265D01*
X217317D01*
X168458Y387123D01*
X168762Y387649D01*
X169000Y388539D01*
Y389461D01*
X168762Y390351D01*
X168301Y391149D01*
X167649Y391801D01*
X166851Y392262D01*
X165961Y392500D01*
D02*
G37*
G36*
X392961Y341000D02*
X392039D01*
X391149Y340761D01*
X390351Y340301D01*
X389699Y339649D01*
X389239Y338851D01*
X389000Y337961D01*
Y337039D01*
X389239Y336149D01*
X389699Y335351D01*
X390351Y334699D01*
X391149Y334239D01*
X392039Y334000D01*
X392961D01*
X393851Y334239D01*
X394649Y334699D01*
X395301Y335351D01*
X395761Y336149D01*
X395919Y336735D01*
X449383D01*
X449536Y336570D01*
X449708Y336235D01*
X449500Y335461D01*
Y334539D01*
X449739Y333649D01*
X450199Y332851D01*
X450851Y332199D01*
X451649Y331738D01*
X452539Y331500D01*
X453461D01*
X454351Y331738D01*
X455149Y332199D01*
X455801Y332851D01*
X456261Y333649D01*
X456500Y334539D01*
Y335461D01*
X456261Y336351D01*
X455801Y337149D01*
X455149Y337801D01*
X454351Y338262D01*
X453461Y338500D01*
X452539D01*
X451649Y338262D01*
X450931Y337847D01*
X450737Y338041D01*
X450489Y338207D01*
X450197Y338265D01*
X395919D01*
X395761Y338851D01*
X395301Y339649D01*
X394649Y340301D01*
X393851Y340761D01*
X392961Y341000D01*
D02*
G37*
G36*
X165961Y382500D02*
X165039D01*
X164149Y382261D01*
X163351Y381801D01*
X162699Y381149D01*
X162239Y380351D01*
X162000Y379461D01*
Y378539D01*
X162239Y377649D01*
X162699Y376851D01*
X163351Y376199D01*
X164149Y375739D01*
X165039Y375500D01*
X165961D01*
X166851Y375739D01*
X167377Y376042D01*
X216459Y326959D01*
X216707Y326794D01*
X217000Y326735D01*
X299081D01*
X299238Y326149D01*
X299699Y325351D01*
X300351Y324699D01*
X301149Y324238D01*
X302039Y324000D01*
X302961D01*
X303851Y324238D01*
X304649Y324699D01*
X305301Y325351D01*
X305762Y326149D01*
X306000Y327039D01*
Y327961D01*
X305762Y328851D01*
X305301Y329649D01*
X304649Y330301D01*
X303851Y330762D01*
X302961Y331000D01*
X302039D01*
X301149Y330762D01*
X300351Y330301D01*
X299699Y329649D01*
X299238Y328851D01*
X299081Y328265D01*
X217317D01*
X168458Y377123D01*
X168762Y377649D01*
X169000Y378539D01*
Y379461D01*
X168762Y380351D01*
X168301Y381149D01*
X167649Y381801D01*
X166851Y382261D01*
X165961Y382500D01*
D02*
G37*
G36*
X392961Y331000D02*
X392039D01*
X391149Y330762D01*
X390351Y330301D01*
X389699Y329649D01*
X389239Y328851D01*
X389000Y327961D01*
Y327039D01*
X389239Y326149D01*
X389699Y325351D01*
X390351Y324699D01*
X391149Y324238D01*
X392039Y324000D01*
X392961D01*
X393851Y324238D01*
X394649Y324699D01*
X395301Y325351D01*
X395761Y326149D01*
X395919Y326735D01*
X449383D01*
X449536Y326570D01*
X449708Y326235D01*
X449500Y325461D01*
Y324539D01*
X449739Y323649D01*
X450199Y322851D01*
X450851Y322199D01*
X451649Y321739D01*
X452539Y321500D01*
X453461D01*
X454351Y321739D01*
X455149Y322199D01*
X455801Y322851D01*
X456261Y323649D01*
X456500Y324539D01*
Y325461D01*
X456261Y326351D01*
X455801Y327149D01*
X455149Y327801D01*
X454351Y328261D01*
X453461Y328500D01*
X452539D01*
X451649Y328261D01*
X450931Y327847D01*
X450737Y328041D01*
X450489Y328206D01*
X450197Y328265D01*
X395919D01*
X395761Y328851D01*
X395301Y329649D01*
X394649Y330301D01*
X393851Y330762D01*
X392961Y331000D01*
D02*
G37*
G36*
X165961Y372500D02*
X165039D01*
X164149Y372262D01*
X163351Y371801D01*
X162699Y371149D01*
X162239Y370351D01*
X162000Y369461D01*
Y368539D01*
X162239Y367649D01*
X162699Y366851D01*
X163351Y366199D01*
X164149Y365739D01*
X165039Y365500D01*
X165961D01*
X166851Y365739D01*
X167377Y366042D01*
X216459Y316959D01*
X216707Y316793D01*
X217000Y316735D01*
X299081D01*
X299238Y316149D01*
X299699Y315351D01*
X300351Y314699D01*
X301149Y314239D01*
X302039Y314000D01*
X302961D01*
X303851Y314239D01*
X304649Y314699D01*
X305301Y315351D01*
X305762Y316149D01*
X306000Y317039D01*
Y317961D01*
X305762Y318851D01*
X305301Y319649D01*
X304649Y320301D01*
X303851Y320761D01*
X302961Y321000D01*
X302039D01*
X301149Y320761D01*
X300351Y320301D01*
X299699Y319649D01*
X299238Y318851D01*
X299081Y318265D01*
X217317D01*
X168458Y367123D01*
X168762Y367649D01*
X169000Y368539D01*
Y369461D01*
X168762Y370351D01*
X168301Y371149D01*
X167649Y371801D01*
X166851Y372262D01*
X165961Y372500D01*
D02*
G37*
G36*
X392961Y321000D02*
X392039D01*
X391149Y320761D01*
X390351Y320301D01*
X389699Y319649D01*
X389239Y318851D01*
X389000Y317961D01*
Y317039D01*
X389239Y316149D01*
X389699Y315351D01*
X390351Y314699D01*
X391149Y314239D01*
X392039Y314000D01*
X392961D01*
X393851Y314239D01*
X394649Y314699D01*
X395301Y315351D01*
X395761Y316149D01*
X395919Y316735D01*
X449383D01*
X449536Y316570D01*
X449708Y316235D01*
X449500Y315461D01*
Y314539D01*
X449739Y313649D01*
X450199Y312851D01*
X450851Y312199D01*
X451649Y311738D01*
X452539Y311500D01*
X453461D01*
X454351Y311738D01*
X455149Y312199D01*
X455801Y312851D01*
X456261Y313649D01*
X456500Y314539D01*
Y315461D01*
X456261Y316351D01*
X455801Y317149D01*
X455149Y317801D01*
X454351Y318262D01*
X453461Y318500D01*
X452539D01*
X451649Y318262D01*
X450931Y317847D01*
X450737Y318041D01*
X450489Y318207D01*
X450197Y318265D01*
X395919D01*
X395761Y318851D01*
X395301Y319649D01*
X394649Y320301D01*
X393851Y320761D01*
X392961Y321000D01*
D02*
G37*
G36*
X165961Y362500D02*
X165039D01*
X164149Y362262D01*
X163351Y361801D01*
X162699Y361149D01*
X162239Y360351D01*
X162000Y359461D01*
Y358539D01*
X162239Y357649D01*
X162699Y356851D01*
X163351Y356199D01*
X164149Y355738D01*
X165039Y355500D01*
X165961D01*
X166851Y355738D01*
X167377Y356042D01*
X216459Y306959D01*
X216707Y306793D01*
X217000Y306735D01*
X299081D01*
X299238Y306149D01*
X299699Y305351D01*
X300351Y304699D01*
X301149Y304239D01*
X302039Y304000D01*
X302961D01*
X303851Y304239D01*
X304649Y304699D01*
X305301Y305351D01*
X305762Y306149D01*
X306000Y307039D01*
Y307961D01*
X305762Y308851D01*
X305301Y309649D01*
X304649Y310301D01*
X303851Y310761D01*
X302961Y311000D01*
X302039D01*
X301149Y310761D01*
X300351Y310301D01*
X299699Y309649D01*
X299238Y308851D01*
X299081Y308265D01*
X217317D01*
X168458Y357123D01*
X168762Y357649D01*
X169000Y358539D01*
Y359461D01*
X168762Y360351D01*
X168301Y361149D01*
X167649Y361801D01*
X166851Y362262D01*
X165961Y362500D01*
D02*
G37*
G36*
X392961Y311000D02*
X392039D01*
X391149Y310761D01*
X390351Y310301D01*
X389699Y309649D01*
X389239Y308851D01*
X389000Y307961D01*
Y307039D01*
X389239Y306149D01*
X389699Y305351D01*
X390351Y304699D01*
X391149Y304239D01*
X392039Y304000D01*
X392961D01*
X393851Y304239D01*
X394649Y304699D01*
X395301Y305351D01*
X395761Y306149D01*
X395919Y306735D01*
X449383D01*
X449536Y306570D01*
X449708Y306235D01*
X449500Y305461D01*
Y304539D01*
X449739Y303649D01*
X450199Y302851D01*
X450851Y302199D01*
X451649Y301739D01*
X452539Y301500D01*
X453461D01*
X454351Y301739D01*
X455149Y302199D01*
X455801Y302851D01*
X456261Y303649D01*
X456500Y304539D01*
Y305461D01*
X456261Y306351D01*
X455801Y307149D01*
X455149Y307801D01*
X454351Y308261D01*
X453461Y308500D01*
X452539D01*
X451649Y308261D01*
X450931Y307847D01*
X450737Y308041D01*
X450489Y308207D01*
X450197Y308265D01*
X395919D01*
X395761Y308851D01*
X395301Y309649D01*
X394649Y310301D01*
X393851Y310761D01*
X392961Y311000D01*
D02*
G37*
G36*
X165961Y352500D02*
X165039D01*
X164149Y352261D01*
X163351Y351801D01*
X162699Y351149D01*
X162239Y350351D01*
X162000Y349461D01*
Y348539D01*
X162239Y347649D01*
X162699Y346851D01*
X163351Y346199D01*
X164149Y345739D01*
X165039Y345500D01*
X165961D01*
X166851Y345739D01*
X167377Y346042D01*
X216459Y296959D01*
X216707Y296794D01*
X217000Y296735D01*
X299081D01*
X299238Y296149D01*
X299699Y295351D01*
X300351Y294699D01*
X301149Y294238D01*
X302039Y294000D01*
X302961D01*
X303851Y294238D01*
X304649Y294699D01*
X305301Y295351D01*
X305762Y296149D01*
X306000Y297039D01*
Y297961D01*
X305762Y298851D01*
X305301Y299649D01*
X304649Y300301D01*
X303851Y300762D01*
X302961Y301000D01*
X302039D01*
X301149Y300762D01*
X300351Y300301D01*
X299699Y299649D01*
X299238Y298851D01*
X299081Y298265D01*
X217317D01*
X168458Y347123D01*
X168762Y347649D01*
X169000Y348539D01*
Y349461D01*
X168762Y350351D01*
X168301Y351149D01*
X167649Y351801D01*
X166851Y352261D01*
X165961Y352500D01*
D02*
G37*
G36*
X392961Y301000D02*
X392039D01*
X391149Y300762D01*
X390351Y300301D01*
X389699Y299649D01*
X389239Y298851D01*
X389000Y297961D01*
Y297039D01*
X389239Y296149D01*
X389699Y295351D01*
X390351Y294699D01*
X391149Y294238D01*
X392039Y294000D01*
X392961D01*
X393851Y294238D01*
X394649Y294699D01*
X395301Y295351D01*
X395761Y296149D01*
X395919Y296735D01*
X449383D01*
X449536Y296570D01*
X449708Y296235D01*
X449500Y295461D01*
Y294539D01*
X449739Y293649D01*
X450199Y292851D01*
X450851Y292199D01*
X451649Y291739D01*
X452539Y291500D01*
X453461D01*
X454351Y291739D01*
X455149Y292199D01*
X455801Y292851D01*
X456261Y293649D01*
X456500Y294539D01*
Y295461D01*
X456261Y296351D01*
X455801Y297149D01*
X455149Y297801D01*
X454351Y298261D01*
X453461Y298500D01*
X452539D01*
X451649Y298261D01*
X450931Y297847D01*
X450737Y298041D01*
X450489Y298206D01*
X450197Y298265D01*
X395919D01*
X395761Y298851D01*
X395301Y299649D01*
X394649Y300301D01*
X393851Y300762D01*
X392961Y301000D01*
D02*
G37*
G36*
X165961Y342500D02*
X165039D01*
X164149Y342262D01*
X163351Y341801D01*
X162699Y341149D01*
X162239Y340351D01*
X162000Y339461D01*
Y338539D01*
X162239Y337649D01*
X162699Y336851D01*
X163351Y336199D01*
X164149Y335738D01*
X165039Y335500D01*
X165961D01*
X166851Y335738D01*
X167377Y336042D01*
X216459Y286959D01*
X216707Y286793D01*
X217000Y286735D01*
X299081D01*
X299238Y286149D01*
X299699Y285351D01*
X300351Y284699D01*
X301149Y284239D01*
X302039Y284000D01*
X302961D01*
X303851Y284239D01*
X304649Y284699D01*
X305301Y285351D01*
X305762Y286149D01*
X306000Y287039D01*
Y287961D01*
X305762Y288851D01*
X305301Y289649D01*
X304649Y290301D01*
X303851Y290761D01*
X302961Y291000D01*
X302039D01*
X301149Y290761D01*
X300351Y290301D01*
X299699Y289649D01*
X299238Y288851D01*
X299081Y288265D01*
X217317D01*
X168458Y337123D01*
X168762Y337649D01*
X169000Y338539D01*
Y339461D01*
X168762Y340351D01*
X168301Y341149D01*
X167649Y341801D01*
X166851Y342262D01*
X165961Y342500D01*
D02*
G37*
G36*
X392961Y291000D02*
X392039D01*
X391149Y290761D01*
X390351Y290301D01*
X389699Y289649D01*
X389239Y288851D01*
X389000Y287961D01*
Y287039D01*
X389239Y286149D01*
X389699Y285351D01*
X390351Y284699D01*
X391149Y284239D01*
X392039Y284000D01*
X392961D01*
X393851Y284239D01*
X394649Y284699D01*
X395301Y285351D01*
X395761Y286149D01*
X395919Y286735D01*
X449383D01*
X449536Y286570D01*
X449708Y286235D01*
X449500Y285461D01*
Y284539D01*
X449739Y283649D01*
X450199Y282851D01*
X450851Y282199D01*
X451649Y281738D01*
X452539Y281500D01*
X453461D01*
X454351Y281738D01*
X455149Y282199D01*
X455801Y282851D01*
X456261Y283649D01*
X456500Y284539D01*
Y285461D01*
X456261Y286351D01*
X455801Y287149D01*
X455149Y287801D01*
X454351Y288262D01*
X453461Y288500D01*
X452539D01*
X451649Y288262D01*
X450931Y287847D01*
X450737Y288041D01*
X450489Y288207D01*
X450197Y288265D01*
X395919D01*
X395761Y288851D01*
X395301Y289649D01*
X394649Y290301D01*
X393851Y290761D01*
X392961Y291000D01*
D02*
G37*
G36*
X164961Y283000D02*
X164039D01*
X163149Y282762D01*
X162351Y282301D01*
X161699Y281649D01*
X161239Y280851D01*
X161000Y279961D01*
Y279039D01*
X161239Y278149D01*
X161699Y277351D01*
X162351Y276699D01*
X163149Y276238D01*
X164039Y276000D01*
X164961D01*
X165851Y276238D01*
X166649Y276699D01*
X167301Y277351D01*
X167762Y278149D01*
X168000Y279039D01*
Y279961D01*
X167762Y280851D01*
X167301Y281649D01*
X166649Y282301D01*
X165851Y282762D01*
X164961Y283000D01*
D02*
G37*
G36*
X165961Y332500D02*
X165039D01*
X164149Y332261D01*
X163351Y331801D01*
X162699Y331149D01*
X162239Y330351D01*
X162000Y329461D01*
Y328539D01*
X162239Y327649D01*
X162699Y326851D01*
X163351Y326199D01*
X164149Y325739D01*
X165039Y325500D01*
X165961D01*
X166851Y325739D01*
X167377Y326042D01*
X216459Y276959D01*
X216707Y276794D01*
X217000Y276735D01*
X299081D01*
X299238Y276149D01*
X299699Y275351D01*
X300351Y274699D01*
X301149Y274238D01*
X302039Y274000D01*
X302961D01*
X303851Y274238D01*
X304649Y274699D01*
X305301Y275351D01*
X305762Y276149D01*
X306000Y277039D01*
Y277961D01*
X305762Y278851D01*
X305301Y279649D01*
X304649Y280301D01*
X303851Y280762D01*
X302961Y281000D01*
X302039D01*
X301149Y280762D01*
X300351Y280301D01*
X299699Y279649D01*
X299238Y278851D01*
X299081Y278265D01*
X217317D01*
X168458Y327123D01*
X168762Y327649D01*
X169000Y328539D01*
Y329461D01*
X168762Y330351D01*
X168301Y331149D01*
X167649Y331801D01*
X166851Y332261D01*
X165961Y332500D01*
D02*
G37*
G36*
X392961Y281000D02*
X392039D01*
X391149Y280762D01*
X390351Y280301D01*
X389699Y279649D01*
X389239Y278851D01*
X389000Y277961D01*
Y277039D01*
X389239Y276149D01*
X389699Y275351D01*
X390351Y274699D01*
X391149Y274238D01*
X392039Y274000D01*
X392961D01*
X393851Y274238D01*
X394649Y274699D01*
X395301Y275351D01*
X395761Y276149D01*
X395919Y276735D01*
X449383D01*
X449536Y276570D01*
X449708Y276235D01*
X449500Y275461D01*
Y274539D01*
X449739Y273649D01*
X450199Y272851D01*
X450851Y272199D01*
X451649Y271739D01*
X452539Y271500D01*
X453461D01*
X454351Y271739D01*
X455149Y272199D01*
X455801Y272851D01*
X456261Y273649D01*
X456500Y274539D01*
Y275461D01*
X456261Y276351D01*
X455801Y277149D01*
X455149Y277801D01*
X454351Y278261D01*
X453461Y278500D01*
X452539D01*
X451649Y278261D01*
X450931Y277847D01*
X450737Y278041D01*
X450489Y278206D01*
X450197Y278265D01*
X395919D01*
X395761Y278851D01*
X395301Y279649D01*
X394649Y280301D01*
X393851Y280762D01*
X392961Y281000D01*
D02*
G37*
G36*
X164961Y273000D02*
X164039D01*
X163149Y272762D01*
X162351Y272301D01*
X161699Y271649D01*
X161239Y270851D01*
X161000Y269961D01*
Y269039D01*
X161239Y268149D01*
X161699Y267351D01*
X162351Y266699D01*
X163149Y266238D01*
X164039Y266000D01*
X164961D01*
X165851Y266238D01*
X166649Y266699D01*
X167301Y267351D01*
X167762Y268149D01*
X168000Y269039D01*
Y269961D01*
X167762Y270851D01*
X167301Y271649D01*
X166649Y272301D01*
X165851Y272762D01*
X164961Y273000D01*
D02*
G37*
G36*
X392961Y271000D02*
X392039D01*
X391149Y270761D01*
X390351Y270301D01*
X389699Y269649D01*
X389239Y268851D01*
X389081Y268265D01*
X383827D01*
X383534Y268207D01*
X383286Y268041D01*
X383286Y268041D01*
X317016Y201770D01*
X315663D01*
X315372Y201713D01*
X315125Y201548D01*
X314961Y201301D01*
X314931Y201150D01*
X293097D01*
Y201238D01*
X293039Y201529D01*
X292875Y201776D01*
X292628Y201941D01*
X292337Y201999D01*
X290663D01*
X290372Y201941D01*
X290125Y201776D01*
X289961Y201529D01*
X289903Y201238D01*
Y199762D01*
X289961Y199471D01*
X290125Y199224D01*
X290372Y199059D01*
X290663Y199001D01*
X292337D01*
X292628Y199059D01*
X292875Y199224D01*
X293039Y199471D01*
X293069Y199621D01*
X314903D01*
Y199533D01*
X314961Y199242D01*
X315125Y198996D01*
X315372Y198831D01*
X315663Y198773D01*
X317337D01*
X317628Y198831D01*
X317875Y198996D01*
X318039Y199242D01*
X318097Y199533D01*
Y200689D01*
X384143Y266735D01*
X389081D01*
X389239Y266149D01*
X389699Y265351D01*
X390351Y264699D01*
X391149Y264239D01*
X392039Y264000D01*
X392961D01*
X393851Y264239D01*
X394649Y264699D01*
X395301Y265351D01*
X395761Y266149D01*
X396000Y267039D01*
Y267961D01*
X395761Y268851D01*
X395301Y269649D01*
X394649Y270301D01*
X393851Y270761D01*
X392961Y271000D01*
D02*
G37*
G36*
X165961Y322500D02*
X165039D01*
X164149Y322262D01*
X163351Y321801D01*
X162699Y321149D01*
X162239Y320351D01*
X162000Y319461D01*
Y318539D01*
X162239Y317649D01*
X162699Y316851D01*
X163351Y316199D01*
X164149Y315739D01*
X165039Y315500D01*
X165961D01*
X166851Y315739D01*
X167377Y316042D01*
X216459Y266959D01*
X216707Y266793D01*
X217000Y266735D01*
X299081D01*
X299238Y266149D01*
X299699Y265351D01*
X300351Y264699D01*
X301149Y264239D01*
X302039Y264000D01*
X302961D01*
X303851Y264239D01*
X304649Y264699D01*
X305301Y265351D01*
X305762Y266149D01*
X306000Y267039D01*
Y267961D01*
X305762Y268851D01*
X305301Y269649D01*
X304649Y270301D01*
X303851Y270761D01*
X302961Y271000D01*
X302039D01*
X301149Y270761D01*
X300351Y270301D01*
X299699Y269649D01*
X299238Y268851D01*
X299081Y268265D01*
X217317D01*
X168458Y317123D01*
X168762Y317649D01*
X169000Y318539D01*
Y319461D01*
X168762Y320351D01*
X168301Y321149D01*
X167649Y321801D01*
X166851Y322262D01*
X165961Y322500D01*
D02*
G37*
G36*
X164961Y263000D02*
X164039D01*
X163149Y262761D01*
X162351Y262301D01*
X161699Y261649D01*
X161239Y260851D01*
X161000Y259961D01*
Y259039D01*
X161239Y258149D01*
X161699Y257351D01*
X162351Y256699D01*
X163149Y256239D01*
X164039Y256000D01*
X164961D01*
X165851Y256239D01*
X166649Y256699D01*
X167301Y257351D01*
X167762Y258149D01*
X168000Y259039D01*
Y259961D01*
X167762Y260851D01*
X167301Y261649D01*
X166649Y262301D01*
X165851Y262761D01*
X164961Y263000D01*
D02*
G37*
G36*
X392961Y261000D02*
X392039D01*
X391149Y260761D01*
X390351Y260301D01*
X389699Y259649D01*
X389239Y258851D01*
X389000Y257961D01*
Y257039D01*
X389239Y256149D01*
X389542Y255623D01*
X363959Y230041D01*
X363793Y229793D01*
X363735Y229500D01*
Y202042D01*
X363663D01*
X363372Y201984D01*
X363125Y201819D01*
X362961Y201573D01*
X362903Y201281D01*
Y201172D01*
X342565D01*
X342539Y201301D01*
X342374Y201548D01*
X342128Y201713D01*
X341837Y201770D01*
X340163D01*
X339872Y201713D01*
X339626Y201548D01*
X339461Y201301D01*
X339403Y201010D01*
Y199533D01*
X339461Y199242D01*
X339626Y198996D01*
X339872Y198831D01*
X340163Y198773D01*
X341837D01*
X342128Y198831D01*
X342374Y198996D01*
X342539Y199242D01*
X342597Y199533D01*
Y199643D01*
X362935D01*
X362961Y199514D01*
X363125Y199267D01*
X363372Y199102D01*
X363663Y199044D01*
X365337D01*
X365628Y199102D01*
X365875Y199267D01*
X366039Y199514D01*
X366097Y199805D01*
Y201281D01*
X366039Y201573D01*
X365875Y201819D01*
X365628Y201984D01*
X365337Y202042D01*
X365265D01*
Y229183D01*
X390623Y254542D01*
X391149Y254239D01*
X392039Y254000D01*
X392961D01*
X393851Y254239D01*
X394649Y254699D01*
X395301Y255351D01*
X395761Y256149D01*
X396000Y257039D01*
Y257961D01*
X395761Y258851D01*
X395301Y259649D01*
X394649Y260301D01*
X393851Y260761D01*
X392961Y261000D01*
D02*
G37*
G36*
X302961D02*
X302039D01*
X301149Y260761D01*
X300351Y260301D01*
X299699Y259649D01*
X299238Y258851D01*
X299000Y257961D01*
Y257039D01*
X299238Y256149D01*
X299699Y255351D01*
X300351Y254699D01*
X301149Y254239D01*
X302039Y254000D01*
X302961D01*
X303851Y254239D01*
X304649Y254699D01*
X305301Y255351D01*
X305762Y256149D01*
X306000Y257039D01*
Y257961D01*
X305762Y258851D01*
X305301Y259649D01*
X304649Y260301D01*
X303851Y260761D01*
X302961Y261000D01*
D02*
G37*
G36*
X164961Y253000D02*
X164039D01*
X163149Y252762D01*
X162351Y252301D01*
X161699Y251649D01*
X161239Y250851D01*
X161000Y249961D01*
Y249039D01*
X161239Y248149D01*
X161699Y247351D01*
X162351Y246699D01*
X163149Y246238D01*
X164039Y246000D01*
X164961D01*
X165851Y246238D01*
X166649Y246699D01*
X167301Y247351D01*
X167762Y248149D01*
X168000Y249039D01*
Y249961D01*
X167762Y250851D01*
X167301Y251649D01*
X166649Y252301D01*
X165851Y252762D01*
X164961Y253000D01*
D02*
G37*
G36*
X392961Y251000D02*
X392039D01*
X391149Y250762D01*
X390351Y250301D01*
X389699Y249649D01*
X389239Y248851D01*
X389000Y247961D01*
Y247039D01*
X389239Y246149D01*
X389699Y245351D01*
X390351Y244699D01*
X391149Y244238D01*
X392039Y244000D01*
X392961D01*
X393851Y244238D01*
X394649Y244699D01*
X395301Y245351D01*
X395761Y246149D01*
X396000Y247039D01*
Y247961D01*
X395761Y248851D01*
X395301Y249649D01*
X394649Y250301D01*
X393851Y250762D01*
X392961Y251000D01*
D02*
G37*
G36*
X302961D02*
X302039D01*
X301149Y250762D01*
X300351Y250301D01*
X299699Y249649D01*
X299238Y248851D01*
X299000Y247961D01*
Y247039D01*
X299238Y246149D01*
X299699Y245351D01*
X300351Y244699D01*
X301149Y244238D01*
X302039Y244000D01*
X302961D01*
X303851Y244238D01*
X304649Y244699D01*
X305301Y245351D01*
X305762Y246149D01*
X306000Y247039D01*
Y247961D01*
X305762Y248851D01*
X305301Y249649D01*
X304649Y250301D01*
X303851Y250762D01*
X302961Y251000D01*
D02*
G37*
G36*
X253474Y252998D02*
X170500D01*
Y244000D01*
X253474D01*
Y252998D01*
D02*
G37*
G36*
X164961Y243000D02*
X164039D01*
X163149Y242761D01*
X162351Y242301D01*
X161699Y241649D01*
X161239Y240851D01*
X161000Y239961D01*
Y239039D01*
X161239Y238149D01*
X161699Y237351D01*
X162351Y236699D01*
X163149Y236239D01*
X164039Y236000D01*
X164961D01*
X165851Y236239D01*
X166649Y236699D01*
X167301Y237351D01*
X167762Y238149D01*
X168000Y239039D01*
Y239961D01*
X167762Y240851D01*
X167301Y241649D01*
X166649Y242301D01*
X165851Y242761D01*
X164961Y243000D01*
D02*
G37*
G36*
X392961Y241000D02*
X392039D01*
X391149Y240761D01*
X390351Y240301D01*
X389699Y239649D01*
X389239Y238851D01*
X389000Y237961D01*
Y237039D01*
X389239Y236149D01*
X389699Y235351D01*
X390351Y234699D01*
X391149Y234239D01*
X392039Y234000D01*
X392961D01*
X393851Y234239D01*
X394649Y234699D01*
X395301Y235351D01*
X395761Y236149D01*
X396000Y237039D01*
Y237961D01*
X395761Y238851D01*
X395301Y239649D01*
X394649Y240301D01*
X393851Y240761D01*
X392961Y241000D01*
D02*
G37*
G36*
X302961D02*
X302039D01*
X301149Y240761D01*
X300351Y240301D01*
X299699Y239649D01*
X299238Y238851D01*
X299000Y237961D01*
Y237039D01*
X299238Y236149D01*
X299699Y235351D01*
X300351Y234699D01*
X301149Y234239D01*
X302039Y234000D01*
X302961D01*
X303851Y234239D01*
X304649Y234699D01*
X305301Y235351D01*
X305762Y236149D01*
X306000Y237039D01*
Y237961D01*
X305762Y238851D01*
X305301Y239649D01*
X304649Y240301D01*
X303851Y240761D01*
X302961Y241000D01*
D02*
G37*
G36*
X164961Y233000D02*
X164039D01*
X163149Y232762D01*
X162351Y232301D01*
X161699Y231649D01*
X161239Y230851D01*
X161000Y229961D01*
Y229039D01*
X161239Y228149D01*
X161699Y227351D01*
X162351Y226699D01*
X163149Y226238D01*
X164039Y226000D01*
X164961D01*
X165851Y226238D01*
X166649Y226699D01*
X167301Y227351D01*
X167762Y228149D01*
X168000Y229039D01*
Y229961D01*
X167762Y230851D01*
X167301Y231649D01*
X166649Y232301D01*
X165851Y232762D01*
X164961Y233000D01*
D02*
G37*
G36*
X392961Y231000D02*
X392039D01*
X391149Y230762D01*
X390351Y230301D01*
X389699Y229649D01*
X389239Y228851D01*
X389000Y227961D01*
Y227039D01*
X389239Y226149D01*
X389699Y225351D01*
X390351Y224699D01*
X391149Y224238D01*
X392039Y224000D01*
X392961D01*
X393851Y224238D01*
X394649Y224699D01*
X395301Y225351D01*
X395761Y226149D01*
X396000Y227039D01*
Y227961D01*
X395761Y228851D01*
X395301Y229649D01*
X394649Y230301D01*
X393851Y230762D01*
X392961Y231000D01*
D02*
G37*
G36*
X302961D02*
X302039D01*
X301149Y230762D01*
X300351Y230301D01*
X299699Y229649D01*
X299342Y229029D01*
X172500D01*
X171915Y228913D01*
X171419Y228581D01*
X165652Y222815D01*
X164961Y223000D01*
X164039D01*
X163149Y222762D01*
X162351Y222301D01*
X161699Y221649D01*
X161342Y221029D01*
X157000D01*
X156415Y220913D01*
X155919Y220581D01*
X151419Y216081D01*
X151087Y215585D01*
X150971Y215000D01*
Y185000D01*
X151087Y184415D01*
X151419Y183919D01*
X170919Y164419D01*
X171415Y164087D01*
X172000Y163971D01*
X332500D01*
X333085Y164087D01*
X333581Y164419D01*
X340348Y171185D01*
X341039Y171000D01*
X341961D01*
X342851Y171239D01*
X343649Y171699D01*
X344301Y172351D01*
X344761Y173149D01*
X345000Y174039D01*
Y174961D01*
X344761Y175851D01*
X344301Y176649D01*
X343649Y177301D01*
X342851Y177761D01*
X341961Y178000D01*
X341039D01*
X340149Y177761D01*
X339351Y177301D01*
X338699Y176649D01*
X338239Y175851D01*
X338000Y174961D01*
Y174039D01*
X338185Y173348D01*
X331867Y167029D01*
X285346D01*
X285154Y167491D01*
X289848Y172185D01*
X290539Y172000D01*
X291461D01*
X292351Y172239D01*
X293149Y172699D01*
X293801Y173351D01*
X294262Y174149D01*
X294500Y175039D01*
Y175961D01*
X294262Y176851D01*
X293801Y177649D01*
X293149Y178301D01*
X292351Y178761D01*
X291461Y179000D01*
X290539D01*
X289649Y178761D01*
X288851Y178301D01*
X288199Y177649D01*
X287738Y176851D01*
X287500Y175961D01*
Y175039D01*
X287685Y174348D01*
X280366Y167029D01*
X172634D01*
X154029Y185634D01*
Y214367D01*
X157633Y217971D01*
X161342D01*
X161699Y217351D01*
X162351Y216699D01*
X163149Y216238D01*
X164039Y216000D01*
X164961D01*
X165851Y216238D01*
X166649Y216699D01*
X167301Y217351D01*
X167658Y217971D01*
X177866D01*
X195685Y200152D01*
X195500Y199461D01*
Y198539D01*
X195738Y197649D01*
X196199Y196851D01*
X196851Y196199D01*
X197649Y195738D01*
X198539Y195500D01*
X199461D01*
X200351Y195738D01*
X201149Y196199D01*
X201801Y196851D01*
X202261Y197649D01*
X202500Y198539D01*
Y199461D01*
X202261Y200351D01*
X201801Y201149D01*
X201149Y201801D01*
X200351Y202261D01*
X199461Y202500D01*
X198539D01*
X197848Y202315D01*
X182654Y217509D01*
X182846Y217971D01*
X210866D01*
X227685Y201152D01*
X227500Y200461D01*
Y199539D01*
X227738Y198649D01*
X228199Y197851D01*
X228851Y197199D01*
X229649Y196739D01*
X230539Y196500D01*
X231461D01*
X232351Y196739D01*
X233149Y197199D01*
X233801Y197851D01*
X234261Y198649D01*
X234500Y199539D01*
Y200461D01*
X234261Y201351D01*
X233801Y202149D01*
X233149Y202801D01*
X232351Y203261D01*
X231461Y203500D01*
X230539D01*
X229848Y203315D01*
X212581Y220581D01*
X212085Y220913D01*
X211500Y221029D01*
X168846D01*
X168654Y221491D01*
X173134Y225971D01*
X299342D01*
X299699Y225351D01*
X300351Y224699D01*
X301149Y224238D01*
X302039Y224000D01*
X302961D01*
X303851Y224238D01*
X304649Y224699D01*
X305301Y225351D01*
X305762Y226149D01*
X306000Y227039D01*
Y227961D01*
X305762Y228851D01*
X305301Y229649D01*
X304649Y230301D01*
X303851Y230762D01*
X302961Y231000D01*
D02*
G37*
G36*
X164961Y213000D02*
X164039D01*
X163149Y212761D01*
X162351Y212301D01*
X161699Y211649D01*
X161239Y210851D01*
X161000Y209961D01*
Y209039D01*
X161239Y208149D01*
X161699Y207351D01*
X162351Y206699D01*
X163149Y206239D01*
X164039Y206000D01*
X164961D01*
X165851Y206239D01*
X166649Y206699D01*
X167301Y207351D01*
X167762Y208149D01*
X168000Y209039D01*
Y209961D01*
X167762Y210851D01*
X167301Y211649D01*
X166649Y212301D01*
X165851Y212761D01*
X164961Y213000D01*
D02*
G37*
G36*
X241461Y203500D02*
X240539D01*
X239649Y203261D01*
X238851Y202801D01*
X238199Y202149D01*
X237738Y201351D01*
X237500Y200461D01*
Y199539D01*
X237738Y198649D01*
X238199Y197851D01*
X238851Y197199D01*
X239649Y196739D01*
X240539Y196500D01*
X241461D01*
X242351Y196739D01*
X243149Y197199D01*
X243801Y197851D01*
X244262Y198649D01*
X244500Y199539D01*
Y200461D01*
X244262Y201351D01*
X243801Y202149D01*
X243149Y202801D01*
X242351Y203261D01*
X241461Y203500D01*
D02*
G37*
G36*
X209461Y202500D02*
X208539D01*
X207649Y202261D01*
X206851Y201801D01*
X206199Y201149D01*
X205738Y200351D01*
X205500Y199461D01*
Y198539D01*
X205738Y197649D01*
X206199Y196851D01*
X206851Y196199D01*
X207649Y195738D01*
X208539Y195500D01*
X209461D01*
X210351Y195738D01*
X211149Y196199D01*
X211801Y196851D01*
X212262Y197649D01*
X212500Y198539D01*
Y199461D01*
X212262Y200351D01*
X211801Y201149D01*
X211149Y201801D01*
X210351Y202261D01*
X209461Y202500D01*
D02*
G37*
G36*
X223997Y189998D02*
X211000D01*
Y181000D01*
X223997D01*
Y189998D01*
D02*
G37*
G36*
X317337Y198227D02*
X315663D01*
X315372Y198169D01*
X315125Y198004D01*
X314961Y197758D01*
X314903Y197467D01*
Y195990D01*
X314961Y195699D01*
X315125Y195452D01*
X315372Y195287D01*
X315663Y195229D01*
X315735D01*
Y181317D01*
X312877Y178458D01*
X312351Y178761D01*
X311461Y179000D01*
X310539D01*
X309649Y178761D01*
X308851Y178301D01*
X308199Y177649D01*
X307738Y176851D01*
X307500Y175961D01*
Y175039D01*
X307738Y174149D01*
X308199Y173351D01*
X308851Y172699D01*
X309649Y172239D01*
X310539Y172000D01*
X311461D01*
X312351Y172239D01*
X313149Y172699D01*
X313801Y173351D01*
X314262Y174149D01*
X314500Y175039D01*
Y175961D01*
X314262Y176851D01*
X313958Y177377D01*
X317041Y180459D01*
X317041Y180459D01*
X317207Y180707D01*
X317265Y181000D01*
Y195229D01*
X317337D01*
X317628Y195287D01*
X317875Y195452D01*
X318039Y195699D01*
X318097Y195990D01*
Y197467D01*
X318039Y197758D01*
X317875Y198004D01*
X317628Y198169D01*
X317337Y198227D01*
D02*
G37*
G36*
X365337Y198499D02*
X363663D01*
X363372Y198441D01*
X363125Y198276D01*
X362961Y198029D01*
X362903Y197738D01*
Y196262D01*
X362961Y195971D01*
X363125Y195724D01*
X363372Y195559D01*
X363663Y195501D01*
X363735D01*
Y177817D01*
X363377Y177458D01*
X362851Y177761D01*
X361961Y178000D01*
X361039D01*
X360149Y177761D01*
X359351Y177301D01*
X358699Y176649D01*
X358239Y175851D01*
X358000Y174961D01*
Y174039D01*
X358239Y173149D01*
X358699Y172351D01*
X359351Y171699D01*
X360149Y171239D01*
X361039Y171000D01*
X361961D01*
X362851Y171239D01*
X363649Y171699D01*
X364301Y172351D01*
X364761Y173149D01*
X365000Y174039D01*
Y174961D01*
X364761Y175851D01*
X364458Y176377D01*
X365041Y176959D01*
X365207Y177207D01*
X365265Y177500D01*
Y195501D01*
X365337D01*
X365628Y195559D01*
X365875Y195724D01*
X366039Y195971D01*
X366097Y196262D01*
Y197738D01*
X366039Y198029D01*
X365875Y198276D01*
X365628Y198441D01*
X365337Y198499D01*
D02*
G37*
G36*
X292337Y198456D02*
X290663D01*
X290372Y198398D01*
X290125Y198233D01*
X289961Y197986D01*
X289903Y197695D01*
Y196219D01*
X289961Y195927D01*
X290125Y195681D01*
X290372Y195516D01*
X290663Y195458D01*
X290735D01*
Y185000D01*
X290793Y184707D01*
X290959Y184459D01*
X298042Y177377D01*
X297739Y176851D01*
X297500Y175961D01*
Y175039D01*
X297739Y174149D01*
X298199Y173351D01*
X298851Y172699D01*
X299649Y172239D01*
X300539Y172000D01*
X301461D01*
X302351Y172239D01*
X303149Y172699D01*
X303801Y173351D01*
X304261Y174149D01*
X304500Y175039D01*
Y175961D01*
X304261Y176851D01*
X303801Y177649D01*
X303149Y178301D01*
X302351Y178761D01*
X301461Y179000D01*
X300539D01*
X299649Y178761D01*
X299123Y178458D01*
X292265Y185317D01*
Y195458D01*
X292337D01*
X292628Y195516D01*
X292875Y195681D01*
X293039Y195927D01*
X293097Y196219D01*
Y197695D01*
X293039Y197986D01*
X292875Y198233D01*
X292628Y198398D01*
X292337Y198456D01*
D02*
G37*
G36*
X341837Y198227D02*
X340163D01*
X339872Y198169D01*
X339626Y198004D01*
X339461Y197758D01*
X339403Y197467D01*
Y195990D01*
X339461Y195699D01*
X339626Y195452D01*
X339872Y195287D01*
X340163Y195229D01*
X341516D01*
X350735Y186010D01*
Y177919D01*
X350149Y177761D01*
X349351Y177301D01*
X348699Y176649D01*
X348238Y175851D01*
X348000Y174961D01*
Y174039D01*
X348238Y173149D01*
X348699Y172351D01*
X349351Y171699D01*
X350149Y171239D01*
X351039Y171000D01*
X351961D01*
X352851Y171239D01*
X353649Y171699D01*
X354301Y172351D01*
X354762Y173149D01*
X355000Y174039D01*
Y174961D01*
X354762Y175851D01*
X354301Y176649D01*
X353649Y177301D01*
X352851Y177761D01*
X352265Y177919D01*
Y186327D01*
X352206Y186619D01*
X352041Y186867D01*
X342597Y196311D01*
Y197467D01*
X342539Y197758D01*
X342374Y198004D01*
X342128Y198169D01*
X341837Y198227D01*
D02*
G37*
%LPD*%
D11*
X472999Y430498D02*
X471000D01*
X470000Y429498D01*
Y425500D01*
X471000Y424500D01*
X472999D01*
X473999Y425500D01*
Y429498D01*
X472999Y430498D01*
X475998D02*
Y424500D01*
X479997D01*
X485995Y430498D02*
X481996D01*
Y424500D01*
X485995D01*
X481996Y427499D02*
X483995D01*
X487994Y430498D02*
Y424500D01*
X490993D01*
X491993Y425500D01*
Y429498D01*
X490993Y430498D01*
X487994D01*
X394000Y454998D02*
X395999D01*
X395000D01*
Y449000D01*
X394000D01*
X395999D01*
X398998D02*
Y454998D01*
X401997D01*
X402997Y453998D01*
Y451999D01*
X401997Y450999D01*
X398998D01*
X400998D02*
X402997Y449000D01*
X414993Y453998D02*
X413994Y454998D01*
X411994D01*
X410994Y453998D01*
Y450000D01*
X411994Y449000D01*
X413994D01*
X414993Y450000D01*
X417992Y452999D02*
X419992D01*
X420991Y451999D01*
Y449000D01*
X417992D01*
X416993Y450000D01*
X417992Y450999D01*
X420991D01*
X422991Y449000D02*
Y452999D01*
X423990D01*
X424990Y451999D01*
Y449000D01*
Y451999D01*
X425990Y452999D01*
X426989Y451999D01*
Y449000D01*
X320500Y152500D02*
Y158498D01*
X323499D01*
X324499Y157498D01*
Y155499D01*
X323499Y154499D01*
X320500D01*
X322499D02*
X324499Y152500D01*
X326498Y158498D02*
X330497Y152500D01*
Y158498D02*
X326498Y152500D01*
X212500Y188498D02*
X216499D01*
X214499D01*
Y182500D01*
X218498Y188498D02*
X222497Y182500D01*
Y188498D02*
X218498Y182500D01*
X172000Y251498D02*
Y246500D01*
X173000Y245500D01*
X174999D01*
X175999Y246500D01*
Y251498D01*
X181997Y250498D02*
X180997Y251498D01*
X178998D01*
X177998Y250498D01*
Y249499D01*
X178998Y248499D01*
X180997D01*
X181997Y247499D01*
Y246500D01*
X180997Y245500D01*
X178998D01*
X177998Y246500D01*
X183996Y251498D02*
Y245500D01*
X186995D01*
X187995Y246500D01*
Y247499D01*
X186995Y248499D01*
X183996D01*
X186995D01*
X187995Y249499D01*
Y250498D01*
X186995Y251498D01*
X183996D01*
X193993Y250498D02*
X192993Y251498D01*
X190994D01*
X189994Y250498D01*
Y246500D01*
X190994Y245500D01*
X192993D01*
X193993Y246500D01*
X205989Y250498D02*
X204989Y251498D01*
X202990D01*
X201990Y250498D01*
Y246500D01*
X202990Y245500D01*
X204989D01*
X205989Y246500D01*
X208988Y245500D02*
X210987D01*
X211987Y246500D01*
Y248499D01*
X210987Y249499D01*
X208988D01*
X207988Y248499D01*
Y246500D01*
X208988Y245500D01*
X213986D02*
Y249499D01*
X216985D01*
X217985Y248499D01*
Y245500D01*
X219985Y249499D02*
X221984Y245500D01*
X223983Y249499D01*
X228982Y245500D02*
X226982D01*
X225982Y246500D01*
Y248499D01*
X226982Y249499D01*
X228982D01*
X229981Y248499D01*
Y247499D01*
X225982D01*
X231981Y249499D02*
Y245500D01*
Y247499D01*
X232980Y248499D01*
X233980Y249499D01*
X234980D01*
X238978Y250498D02*
Y249499D01*
X237979D01*
X239978D01*
X238978D01*
Y246500D01*
X239978Y245500D01*
X245976D02*
X243977D01*
X242977Y246500D01*
Y248499D01*
X243977Y249499D01*
X245976D01*
X246976Y248499D01*
Y247499D01*
X242977D01*
X248975Y249499D02*
Y245500D01*
Y247499D01*
X249975Y248499D01*
X250974Y249499D01*
X251974D01*
D12*
X316500Y200272D02*
D03*
Y196728D02*
D03*
X364500Y200543D02*
D03*
Y197000D02*
D03*
X291500Y196957D02*
D03*
Y200500D02*
D03*
X341000Y196728D02*
D03*
Y200272D02*
D03*
D15*
X364500Y229500D02*
X392500Y257500D01*
X364500Y200543D02*
Y229500D01*
X361500Y174500D02*
X364500Y177500D01*
Y197000D01*
X364364Y200408D02*
X364500Y200543D01*
X341136Y200408D02*
X364364D01*
X341000Y200272D02*
X341136Y200408D01*
X341000Y196728D02*
X341098D01*
X351500Y186327D01*
Y174500D02*
Y186327D01*
X383827Y267500D02*
X392500D01*
X316598Y200272D02*
X383827Y267500D01*
X316500Y200272D02*
X316598D01*
X311000Y175500D02*
X316500Y181000D01*
Y196728D01*
X316386Y200386D02*
X316500Y200272D01*
X291614Y200386D02*
X316386D01*
X291500Y200500D02*
X291614Y200386D01*
X291500Y185000D02*
Y196957D01*
Y185000D02*
X301000Y175500D01*
X392500Y357500D02*
X420000Y385000D01*
X491000D01*
X506500Y400500D01*
Y436000D01*
X494500Y448000D02*
X506500Y436000D01*
X446000Y448000D02*
X494500D01*
X439000Y441000D02*
X446000Y448000D01*
X392500Y387500D02*
X400000Y395000D01*
X491000D01*
X400000D02*
X429000Y424000D01*
Y441000D01*
X165500Y439000D02*
X195500D01*
X247000Y387500D01*
X302500D01*
X239000Y377500D02*
X302500D01*
X165500Y429000D02*
X187500D01*
X239000Y377500D01*
X452697Y275000D02*
X453000D01*
X450197Y277500D02*
X452697Y275000D01*
X392500Y277500D02*
X450197D01*
X452697Y285000D02*
X453000D01*
X450197Y287500D02*
X452697Y285000D01*
X392500Y287500D02*
X450197D01*
X452697Y295000D02*
X453000D01*
X450197Y297500D02*
X452697Y295000D01*
X392500Y297500D02*
X450197D01*
X452697Y305000D02*
X453000D01*
X450197Y307500D02*
X452697Y305000D01*
X392500Y307500D02*
X450197D01*
X452697Y315000D02*
X453000D01*
X450197Y317500D02*
X452697Y315000D01*
X392500Y317500D02*
X450197D01*
X452697Y325000D02*
X453000D01*
X450197Y327500D02*
X452697Y325000D01*
X392500Y327500D02*
X450197D01*
X452697Y335000D02*
X453000D01*
X450197Y337500D02*
X452697Y335000D01*
X392500Y337500D02*
X450197D01*
X217000Y267500D02*
X302500D01*
X165500Y319000D02*
X217000Y267500D01*
Y277500D02*
X302500D01*
X165500Y329000D02*
X217000Y277500D01*
Y287500D02*
X302500D01*
X165500Y339000D02*
X217000Y287500D01*
Y297500D02*
X302500D01*
X165500Y349000D02*
X217000Y297500D01*
Y307500D02*
X302500D01*
X165500Y359000D02*
X217000Y307500D01*
Y317500D02*
X302500D01*
X165500Y369000D02*
X217000Y317500D01*
Y327500D02*
X302500D01*
X165500Y379000D02*
X217000Y327500D01*
Y337500D02*
X302500D01*
X165500Y389000D02*
X217000Y337500D01*
Y347500D02*
X302500D01*
X165500Y399000D02*
X217000Y347500D01*
Y357500D02*
X302500D01*
X165500Y409000D02*
X217000Y357500D01*
X225586Y367500D02*
X302500D01*
X174086Y419000D02*
X225586Y367500D01*
X165500Y419000D02*
X174086D01*
D16*
X178500Y219500D02*
X211500D01*
X231000Y200000D01*
X164500Y219500D02*
X178500D01*
X199000Y199000D01*
X281000Y165500D02*
X332500D01*
X341500Y174500D01*
X157000Y219500D02*
X164500D01*
X152500Y215000D02*
X157000Y219500D01*
X152500Y185000D02*
Y215000D01*
Y185000D02*
X172000Y165500D01*
X281000D01*
X291000Y175500D01*
X172500Y227500D02*
X302500D01*
X164500Y219500D02*
X172500Y227500D01*
D17*
X409000Y441000D02*
D03*
X419000D02*
D03*
X429000D02*
D03*
X439000D02*
D03*
X449000D02*
D03*
X459000D02*
D03*
X491000Y415000D02*
D03*
Y405000D02*
D03*
Y395000D02*
D03*
Y385000D02*
D03*
X231000Y200000D02*
D03*
X241000D02*
D03*
X392500Y407500D02*
D03*
Y397500D02*
D03*
Y387500D02*
D03*
Y377500D02*
D03*
Y367500D02*
D03*
Y357500D02*
D03*
Y347500D02*
D03*
Y337500D02*
D03*
Y327500D02*
D03*
Y317500D02*
D03*
Y307500D02*
D03*
Y297500D02*
D03*
Y287500D02*
D03*
Y277500D02*
D03*
Y267500D02*
D03*
Y257500D02*
D03*
Y247500D02*
D03*
Y237500D02*
D03*
Y227500D02*
D03*
X302500D02*
D03*
Y237500D02*
D03*
Y247500D02*
D03*
Y257500D02*
D03*
Y267500D02*
D03*
Y277500D02*
D03*
Y287500D02*
D03*
Y297500D02*
D03*
Y307500D02*
D03*
Y317500D02*
D03*
Y327500D02*
D03*
Y337500D02*
D03*
Y347500D02*
D03*
Y357500D02*
D03*
Y367500D02*
D03*
Y377500D02*
D03*
Y387500D02*
D03*
Y397500D02*
D03*
Y407500D02*
D03*
X165500Y439000D02*
D03*
Y429000D02*
D03*
Y419000D02*
D03*
Y409000D02*
D03*
Y399000D02*
D03*
Y389000D02*
D03*
Y379000D02*
D03*
Y369000D02*
D03*
Y359000D02*
D03*
Y349000D02*
D03*
Y339000D02*
D03*
Y329000D02*
D03*
Y319000D02*
D03*
X453000Y275000D02*
D03*
Y285000D02*
D03*
Y295000D02*
D03*
Y305000D02*
D03*
Y315000D02*
D03*
Y325000D02*
D03*
Y335000D02*
D03*
X164500Y279500D02*
D03*
Y269500D02*
D03*
Y259500D02*
D03*
Y249500D02*
D03*
Y239500D02*
D03*
Y229500D02*
D03*
Y219500D02*
D03*
Y209500D02*
D03*
X351500Y174500D02*
D03*
X341500D02*
D03*
X361500D02*
D03*
X311000Y175500D02*
D03*
X209000Y199000D02*
D03*
X199000D02*
D03*
X301000Y175500D02*
D03*
X291000D02*
D03*
M02*
